<svg width="14" height="14" viewBox="0 0 14 14" fill="none" xmlns="http://www.w3.org/2000/svg">
<rect width="13.385" height="13.385" fill="#778999" fill-opacity="0.25"/>
<path fill-rule="evenodd" clip-rule="evenodd" d="M10.1313 4.15857L6.29121 7.99905L3.9966 5.70403C3.94316 5.64865 3.87924 5.6045 3.80854 5.57409C3.73785 5.54368 3.66181 5.52768 3.58486 5.52697C3.50791 5.52627 3.43159 5.54088 3.36035 5.56999C3.28911 5.59909 3.22438 5.64209 3.16994 5.69648C3.1155 5.75087 3.07244 5.81557 3.04327 5.88678C3.01409 5.95799 2.99939 6.03428 3.00002 6.11124C3.00065 6.18819 3.01661 6.26426 3.04695 6.33498C3.07729 6.4057 3.1214 6.46967 3.17673 6.52316L5.88128 9.22771C5.98996 9.33636 6.13735 9.39735 6.29102 9.39735C6.4447 9.39735 6.59207 9.33636 6.70075 9.22771L10.9508 4.97771C11.0544 4.86804 11.1112 4.72225 11.1091 4.57135C11.107 4.42045 11.0461 4.27634 10.9393 4.16965C10.8326 4.06297 10.6884 4.00212 10.5375 4.00005C10.3866 3.99799 10.2409 4.05484 10.1313 4.15857Z" fill="#024A69"/>
</svg>
