<svg width="1440" height="432" viewBox="0 0 1440 432" fill="none" xmlns="http://www.w3.org/2000/svg">
<circle cx="125.269" cy="2.75362" r="2.74138" transform="rotate(89.7437 125.269 2.75362)" fill="#778999" fill-opacity="0.25"/>
<circle cx="125.363" cy="23.5879" r="2.74138" transform="rotate(89.7437 125.363 23.5879)" fill="#778999" fill-opacity="0.25"/>
<circle cx="125.456" cy="44.4222" r="2.74138" transform="rotate(89.7437 125.456 44.4222)" fill="#778999" fill-opacity="0.25"/>
<circle cx="125.549" cy="65.2564" r="2.74138" transform="rotate(89.7437 125.549 65.2564)" fill="#778999" fill-opacity="0.25"/>
<circle cx="125.642" cy="86.0907" r="2.74138" transform="rotate(89.7437 125.642 86.0907)" fill="#778999" fill-opacity="0.25"/>
<circle cx="125.735" cy="106.925" r="2.74138" transform="rotate(89.7437 125.735 106.925)" fill="#778999" fill-opacity="0.25"/>
<circle cx="125.829" cy="127.759" r="2.74138" transform="rotate(89.7437 125.829 127.759)" fill="#778999" fill-opacity="0.25"/>
<circle cx="125.922" cy="148.594" r="2.74138" transform="rotate(89.7437 125.922 148.594)" fill="#778999" fill-opacity="0.25"/>
<circle cx="103.339" cy="2.8517" r="2.74138" transform="rotate(89.7437 103.339 2.8517)" fill="#778999" fill-opacity="0.25"/>
<circle cx="103.432" cy="23.686" r="2.74138" transform="rotate(89.7437 103.432 23.686)" fill="#778999" fill-opacity="0.25"/>
<circle cx="103.525" cy="44.5203" r="2.74138" transform="rotate(89.7437 103.525 44.5203)" fill="#778999" fill-opacity="0.25"/>
<circle cx="103.618" cy="65.3545" r="2.74138" transform="rotate(89.7437 103.618 65.3545)" fill="#778999" fill-opacity="0.25"/>
<circle cx="103.712" cy="86.1888" r="2.74138" transform="rotate(89.7437 103.712 86.1888)" fill="#778999" fill-opacity="0.25"/>
<circle cx="103.805" cy="107.023" r="2.74138" transform="rotate(89.7437 103.805 107.023)" fill="#778999" fill-opacity="0.25"/>
<circle cx="103.898" cy="127.857" r="2.74138" transform="rotate(89.7437 103.898 127.857)" fill="#778999" fill-opacity="0.25"/>
<circle cx="103.991" cy="148.692" r="2.74138" transform="rotate(89.7437 103.991 148.692)" fill="#778999" fill-opacity="0.25"/>
<circle cx="81.4078" cy="2.94984" r="2.74138" transform="rotate(89.7437 81.4078 2.94984)" fill="#778999" fill-opacity="0.25"/>
<circle cx="81.501" cy="23.7841" r="2.74138" transform="rotate(89.7437 81.501 23.7841)" fill="#778999" fill-opacity="0.25"/>
<circle cx="81.5942" cy="44.6184" r="2.74138" transform="rotate(89.7437 81.5942 44.6184)" fill="#778999" fill-opacity="0.25"/>
<circle cx="81.6874" cy="65.4527" r="2.74138" transform="rotate(89.7437 81.6874 65.4527)" fill="#778999" fill-opacity="0.25"/>
<circle cx="81.7806" cy="86.2869" r="2.74138" transform="rotate(89.7437 81.7806 86.2869)" fill="#778999" fill-opacity="0.25"/>
<circle cx="81.8738" cy="107.121" r="2.74138" transform="rotate(89.7437 81.8738 107.121)" fill="#778999" fill-opacity="0.25"/>
<circle cx="81.967" cy="127.956" r="2.74138" transform="rotate(89.7437 81.967 127.956)" fill="#778999" fill-opacity="0.25"/>
<circle cx="82.0602" cy="148.79" r="2.74138" transform="rotate(89.7437 82.0602 148.79)" fill="#778999" fill-opacity="0.25"/>
<circle cx="59.477" cy="3.04793" r="2.74138" transform="rotate(89.7437 59.477 3.04793)" fill="#778999" fill-opacity="0.25"/>
<circle cx="59.5702" cy="23.8822" r="2.74138" transform="rotate(89.7437 59.5702 23.8822)" fill="#778999" fill-opacity="0.25"/>
<circle cx="59.6634" cy="44.7165" r="2.74138" transform="rotate(89.7437 59.6634 44.7165)" fill="#778999" fill-opacity="0.25"/>
<circle cx="59.7566" cy="65.5507" r="2.74138" transform="rotate(89.7437 59.7566 65.5507)" fill="#778999" fill-opacity="0.25"/>
<circle cx="59.8498" cy="86.385" r="2.74138" transform="rotate(89.7437 59.8498 86.385)" fill="#778999" fill-opacity="0.25"/>
<circle cx="59.943" cy="107.219" r="2.74138" transform="rotate(89.7437 59.943 107.219)" fill="#778999" fill-opacity="0.25"/>
<circle cx="60.0362" cy="128.054" r="2.74138" transform="rotate(89.7437 60.0362 128.054)" fill="#778999" fill-opacity="0.25"/>
<circle cx="60.1295" cy="148.888" r="2.74138" transform="rotate(89.7437 60.1295 148.888)" fill="#778999" fill-opacity="0.25"/>
<circle cx="37.5462" cy="3.14607" r="2.74138" transform="rotate(89.7437 37.5462 3.14607)" fill="#778999" fill-opacity="0.25"/>
<circle cx="37.6394" cy="23.9804" r="2.74138" transform="rotate(89.7437 37.6394 23.9804)" fill="#778999" fill-opacity="0.25"/>
<circle cx="37.7326" cy="44.8147" r="2.74138" transform="rotate(89.7437 37.7326 44.8147)" fill="#778999" fill-opacity="0.25"/>
<circle cx="37.8258" cy="65.6489" r="2.74138" transform="rotate(89.7437 37.8258 65.6489)" fill="#778999" fill-opacity="0.25"/>
<circle cx="37.919" cy="86.4832" r="2.74138" transform="rotate(89.7437 37.919 86.4832)" fill="#778999" fill-opacity="0.25"/>
<circle cx="38.0122" cy="107.317" r="2.74138" transform="rotate(89.7437 38.0122 107.317)" fill="#778999" fill-opacity="0.25"/>
<circle cx="38.1054" cy="128.152" r="2.74138" transform="rotate(89.7437 38.1054 128.152)" fill="#778999" fill-opacity="0.25"/>
<circle cx="38.1986" cy="148.986" r="2.74138" transform="rotate(89.7437 38.1986 148.986)" fill="#778999" fill-opacity="0.25"/>
<circle cx="15.6154" cy="3.24416" r="2.74138" transform="rotate(89.7437 15.6154 3.24416)" fill="#778999" fill-opacity="0.25"/>
<circle cx="15.7086" cy="24.0784" r="2.74138" transform="rotate(89.7437 15.7086 24.0784)" fill="#778999" fill-opacity="0.25"/>
<circle cx="15.8018" cy="44.9127" r="2.74138" transform="rotate(89.7437 15.8018 44.9127)" fill="#778999" fill-opacity="0.25"/>
<circle cx="15.895" cy="65.747" r="2.74138" transform="rotate(89.7437 15.895 65.747)" fill="#778999" fill-opacity="0.25"/>
<circle cx="15.9882" cy="86.5813" r="2.74138" transform="rotate(89.7437 15.9882 86.5813)" fill="#778999" fill-opacity="0.25"/>
<circle cx="16.0814" cy="107.416" r="2.74138" transform="rotate(89.7437 16.0814 107.416)" fill="#778999" fill-opacity="0.25"/>
<circle cx="16.1746" cy="128.25" r="2.74138" transform="rotate(89.7437 16.1746 128.25)" fill="#778999" fill-opacity="0.25"/>
<circle cx="16.2678" cy="149.084" r="2.74138" transform="rotate(89.7437 16.2678 149.084)" fill="#778999" fill-opacity="0.25"/>
<circle cx="1426.41" cy="281.95" r="2.74138" transform="rotate(89.7437 1426.41 281.95)" fill="#778999" fill-opacity="0.25"/>
<circle cx="1426.5" cy="302.784" r="2.74138" transform="rotate(89.7437 1426.5 302.784)" fill="#778999" fill-opacity="0.25"/>
<circle cx="1426.59" cy="323.618" r="2.74138" transform="rotate(89.7437 1426.59 323.618)" fill="#778999" fill-opacity="0.25"/>
<circle cx="1426.69" cy="344.453" r="2.74138" transform="rotate(89.7437 1426.69 344.453)" fill="#778999" fill-opacity="0.25"/>
<circle cx="1426.78" cy="365.287" r="2.74138" transform="rotate(89.7437 1426.78 365.287)" fill="#778999" fill-opacity="0.25"/>
<circle cx="1426.87" cy="386.121" r="2.74138" transform="rotate(89.7437 1426.87 386.121)" fill="#778999" fill-opacity="0.25"/>
<circle cx="1426.97" cy="406.955" r="2.74138" transform="rotate(89.7437 1426.97 406.955)" fill="#778999" fill-opacity="0.25"/>
<circle cx="1427.06" cy="427.79" r="2.74138" transform="rotate(89.7437 1427.06 427.79)" fill="#778999" fill-opacity="0.25"/>
<circle cx="1404.48" cy="282.048" r="2.74138" transform="rotate(89.7437 1404.48 282.048)" fill="#778999" fill-opacity="0.25"/>
<circle cx="1404.57" cy="302.882" r="2.74138" transform="rotate(89.7437 1404.57 302.882)" fill="#778999" fill-opacity="0.25"/>
<circle cx="1404.66" cy="323.716" r="2.74138" transform="rotate(89.7437 1404.66 323.716)" fill="#778999" fill-opacity="0.25"/>
<circle cx="1404.76" cy="344.551" r="2.74138" transform="rotate(89.7437 1404.76 344.551)" fill="#778999" fill-opacity="0.25"/>
<circle cx="1404.85" cy="365.385" r="2.74138" transform="rotate(89.7437 1404.85 365.385)" fill="#778999" fill-opacity="0.25"/>
<circle cx="1404.94" cy="386.219" r="2.74138" transform="rotate(89.7437 1404.94 386.219)" fill="#778999" fill-opacity="0.25"/>
<circle cx="1405.04" cy="407.054" r="2.74138" transform="rotate(89.7437 1405.04 407.054)" fill="#778999" fill-opacity="0.25"/>
<circle cx="1405.13" cy="427.888" r="2.74138" transform="rotate(89.7437 1405.13 427.888)" fill="#778999" fill-opacity="0.25"/>
<circle cx="1382.55" cy="282.146" r="2.74138" transform="rotate(89.7437 1382.55 282.146)" fill="#778999" fill-opacity="0.25"/>
<circle cx="1382.64" cy="302.98" r="2.74138" transform="rotate(89.7437 1382.64 302.98)" fill="#778999" fill-opacity="0.25"/>
<circle cx="1382.73" cy="323.815" r="2.74138" transform="rotate(89.7437 1382.73 323.815)" fill="#778999" fill-opacity="0.25"/>
<circle cx="1382.83" cy="344.649" r="2.74138" transform="rotate(89.7437 1382.83 344.649)" fill="#778999" fill-opacity="0.25"/>
<circle cx="1382.92" cy="365.483" r="2.74138" transform="rotate(89.7437 1382.92 365.483)" fill="#778999" fill-opacity="0.25"/>
<circle cx="1383.01" cy="386.317" r="2.74138" transform="rotate(89.7437 1383.01 386.317)" fill="#778999" fill-opacity="0.25"/>
<circle cx="1383.11" cy="407.152" r="2.74138" transform="rotate(89.7437 1383.11 407.152)" fill="#778999" fill-opacity="0.25"/>
<circle cx="1383.2" cy="427.986" r="2.74138" transform="rotate(89.7437 1383.2 427.986)" fill="#778999" fill-opacity="0.25"/>
<circle cx="1360.62" cy="282.244" r="2.74138" transform="rotate(89.7437 1360.62 282.244)" fill="#778999" fill-opacity="0.25"/>
<circle cx="1360.71" cy="303.078" r="2.74138" transform="rotate(89.7437 1360.71 303.078)" fill="#778999" fill-opacity="0.25"/>
<circle cx="1360.8" cy="323.913" r="2.74138" transform="rotate(89.7437 1360.8 323.913)" fill="#778999" fill-opacity="0.25"/>
<circle cx="1360.89" cy="344.747" r="2.74138" transform="rotate(89.7437 1360.89 344.747)" fill="#778999" fill-opacity="0.25"/>
<circle cx="1360.99" cy="365.581" r="2.74138" transform="rotate(89.7437 1360.99 365.581)" fill="#778999" fill-opacity="0.25"/>
<circle cx="1361.08" cy="386.416" r="2.74138" transform="rotate(89.7437 1361.08 386.416)" fill="#778999" fill-opacity="0.25"/>
<circle cx="1361.17" cy="407.25" r="2.74138" transform="rotate(89.7437 1361.17 407.25)" fill="#778999" fill-opacity="0.25"/>
<circle cx="1361.27" cy="428.084" r="2.74138" transform="rotate(89.7437 1361.27 428.084)" fill="#778999" fill-opacity="0.25"/>
<circle cx="1338.68" cy="282.342" r="2.74138" transform="rotate(89.7437 1338.68 282.342)" fill="#778999" fill-opacity="0.25"/>
<circle cx="1338.78" cy="303.177" r="2.74138" transform="rotate(89.7437 1338.78 303.177)" fill="#778999" fill-opacity="0.25"/>
<circle cx="1338.87" cy="324.011" r="2.74138" transform="rotate(89.7437 1338.87 324.011)" fill="#778999" fill-opacity="0.25"/>
<circle cx="1338.96" cy="344.845" r="2.74138" transform="rotate(89.7437 1338.96 344.845)" fill="#778999" fill-opacity="0.25"/>
<circle cx="1339.06" cy="365.679" r="2.74138" transform="rotate(89.7437 1339.06 365.679)" fill="#778999" fill-opacity="0.25"/>
<circle cx="1339.15" cy="386.514" r="2.74138" transform="rotate(89.7437 1339.15 386.514)" fill="#778999" fill-opacity="0.25"/>
<circle cx="1339.24" cy="407.348" r="2.74138" transform="rotate(89.7437 1339.24 407.348)" fill="#778999" fill-opacity="0.25"/>
<circle cx="1339.34" cy="428.182" r="2.74138" transform="rotate(89.7437 1339.34 428.182)" fill="#778999" fill-opacity="0.25"/>
<circle cx="1316.75" cy="282.44" r="2.74138" transform="rotate(89.7437 1316.75 282.44)" fill="#778999" fill-opacity="0.25"/>
<circle cx="1316.85" cy="303.275" r="2.74138" transform="rotate(89.7437 1316.85 303.275)" fill="#778999" fill-opacity="0.25"/>
<circle cx="1316.94" cy="324.109" r="2.74138" transform="rotate(89.7437 1316.94 324.109)" fill="#778999" fill-opacity="0.25"/>
<circle cx="1317.03" cy="344.943" r="2.74138" transform="rotate(89.7437 1317.03 344.943)" fill="#778999" fill-opacity="0.25"/>
<circle cx="1317.13" cy="365.777" r="2.74138" transform="rotate(89.7437 1317.13 365.777)" fill="#778999" fill-opacity="0.25"/>
<circle cx="1317.22" cy="386.612" r="2.74138" transform="rotate(89.7437 1317.22 386.612)" fill="#778999" fill-opacity="0.25"/>
<circle cx="1317.31" cy="407.446" r="2.74138" transform="rotate(89.7437 1317.31 407.446)" fill="#778999" fill-opacity="0.25"/>
<circle cx="1317.41" cy="428.28" r="2.74138" transform="rotate(89.7437 1317.41 428.28)" fill="#778999" fill-opacity="0.25"/>
</svg>
