<svg width="1433" height="153" viewBox="0 0 1433 153" fill="none" xmlns="http://www.w3.org/2000/svg">
<circle cx="156.269" cy="2.75362" r="2.74138" transform="rotate(89.7437 156.269 2.75362)" fill="#778999" fill-opacity="0.25"/>
<circle cx="156.363" cy="23.5879" r="2.74138" transform="rotate(89.7437 156.363 23.5879)" fill="#778999" fill-opacity="0.25"/>
<circle cx="156.456" cy="44.4222" r="2.74138" transform="rotate(89.7437 156.456 44.4222)" fill="#778999" fill-opacity="0.25"/>
<circle cx="156.549" cy="65.2564" r="2.74138" transform="rotate(89.7437 156.549 65.2564)" fill="#778999" fill-opacity="0.25"/>
<circle cx="156.642" cy="86.0907" r="2.74138" transform="rotate(89.7437 156.642 86.0907)" fill="#778999" fill-opacity="0.25"/>
<circle cx="156.735" cy="106.925" r="2.74138" transform="rotate(89.7437 156.735 106.925)" fill="#778999" fill-opacity="0.25"/>
<circle cx="156.829" cy="127.759" r="2.74138" transform="rotate(89.7437 156.829 127.759)" fill="#778999" fill-opacity="0.25"/>
<circle cx="156.922" cy="148.594" r="2.74138" transform="rotate(89.7437 156.922 148.594)" fill="#778999" fill-opacity="0.25"/>
<circle cx="134.339" cy="2.8517" r="2.74138" transform="rotate(89.7437 134.339 2.8517)" fill="#778999" fill-opacity="0.25"/>
<circle cx="134.432" cy="23.686" r="2.74138" transform="rotate(89.7437 134.432 23.686)" fill="#778999" fill-opacity="0.25"/>
<circle cx="134.525" cy="44.5203" r="2.74138" transform="rotate(89.7437 134.525 44.5203)" fill="#778999" fill-opacity="0.25"/>
<circle cx="134.619" cy="65.3545" r="2.74138" transform="rotate(89.7437 134.619 65.3545)" fill="#778999" fill-opacity="0.25"/>
<circle cx="134.712" cy="86.1888" r="2.74138" transform="rotate(89.7437 134.712 86.1888)" fill="#778999" fill-opacity="0.25"/>
<circle cx="134.805" cy="107.023" r="2.74138" transform="rotate(89.7437 134.805 107.023)" fill="#778999" fill-opacity="0.25"/>
<circle cx="134.898" cy="127.857" r="2.74138" transform="rotate(89.7437 134.898 127.857)" fill="#778999" fill-opacity="0.25"/>
<circle cx="134.991" cy="148.692" r="2.74138" transform="rotate(89.7437 134.991 148.692)" fill="#778999" fill-opacity="0.25"/>
<circle cx="112.408" cy="2.94984" r="2.74138" transform="rotate(89.7437 112.408 2.94984)" fill="#778999" fill-opacity="0.25"/>
<circle cx="112.501" cy="23.7841" r="2.74138" transform="rotate(89.7437 112.501 23.7841)" fill="#778999" fill-opacity="0.25"/>
<circle cx="112.594" cy="44.6184" r="2.74138" transform="rotate(89.7437 112.594 44.6184)" fill="#778999" fill-opacity="0.25"/>
<circle cx="112.687" cy="65.4527" r="2.74138" transform="rotate(89.7437 112.687 65.4527)" fill="#778999" fill-opacity="0.25"/>
<circle cx="112.781" cy="86.2869" r="2.74138" transform="rotate(89.7437 112.781 86.2869)" fill="#778999" fill-opacity="0.25"/>
<circle cx="112.873" cy="107.121" r="2.74138" transform="rotate(89.7437 112.873 107.121)" fill="#778999" fill-opacity="0.25"/>
<circle cx="112.967" cy="127.956" r="2.74138" transform="rotate(89.7437 112.967 127.956)" fill="#778999" fill-opacity="0.25"/>
<circle cx="113.06" cy="148.79" r="2.74138" transform="rotate(89.7437 113.06 148.79)" fill="#778999" fill-opacity="0.25"/>
<circle cx="90.477" cy="3.04793" r="2.74138" transform="rotate(89.7437 90.477 3.04793)" fill="#778999" fill-opacity="0.25"/>
<circle cx="90.5702" cy="23.8822" r="2.74138" transform="rotate(89.7437 90.5702 23.8822)" fill="#778999" fill-opacity="0.25"/>
<circle cx="90.6635" cy="44.7165" r="2.74138" transform="rotate(89.7437 90.6635 44.7165)" fill="#778999" fill-opacity="0.25"/>
<circle cx="90.7568" cy="65.5507" r="2.74138" transform="rotate(89.7437 90.7568 65.5507)" fill="#778999" fill-opacity="0.25"/>
<circle cx="90.85" cy="86.385" r="2.74138" transform="rotate(89.7437 90.85 86.385)" fill="#778999" fill-opacity="0.25"/>
<circle cx="90.9428" cy="107.219" r="2.74138" transform="rotate(89.7437 90.9428 107.219)" fill="#778999" fill-opacity="0.25"/>
<circle cx="91.036" cy="128.054" r="2.74138" transform="rotate(89.7437 91.036 128.054)" fill="#778999" fill-opacity="0.25"/>
<circle cx="91.1293" cy="148.888" r="2.74138" transform="rotate(89.7437 91.1293 148.888)" fill="#778999" fill-opacity="0.25"/>
<circle cx="68.5463" cy="3.14607" r="2.74138" transform="rotate(89.7437 68.5463 3.14607)" fill="#778999" fill-opacity="0.25"/>
<circle cx="68.6396" cy="23.9804" r="2.74138" transform="rotate(89.7437 68.6396 23.9804)" fill="#778999" fill-opacity="0.25"/>
<circle cx="68.7328" cy="44.8147" r="2.74138" transform="rotate(89.7437 68.7328 44.8147)" fill="#778999" fill-opacity="0.25"/>
<circle cx="68.8261" cy="65.6489" r="2.74138" transform="rotate(89.7437 68.8261 65.6489)" fill="#778999" fill-opacity="0.25"/>
<circle cx="68.9189" cy="86.4832" r="2.74138" transform="rotate(89.7437 68.9189 86.4832)" fill="#778999" fill-opacity="0.25"/>
<circle cx="69.0121" cy="107.317" r="2.74138" transform="rotate(89.7437 69.0121 107.317)" fill="#778999" fill-opacity="0.25"/>
<circle cx="69.1054" cy="128.152" r="2.74138" transform="rotate(89.7437 69.1054 128.152)" fill="#778999" fill-opacity="0.25"/>
<circle cx="69.1986" cy="148.986" r="2.74138" transform="rotate(89.7437 69.1986 148.986)" fill="#778999" fill-opacity="0.25"/>
<circle cx="46.6152" cy="3.24416" r="2.74138" transform="rotate(89.7437 46.6152 3.24416)" fill="#778999" fill-opacity="0.25"/>
<circle cx="46.7084" cy="24.0784" r="2.74138" transform="rotate(89.7437 46.7084 24.0784)" fill="#778999" fill-opacity="0.25"/>
<circle cx="46.8017" cy="44.9127" r="2.74138" transform="rotate(89.7437 46.8017 44.9127)" fill="#778999" fill-opacity="0.25"/>
<circle cx="46.8949" cy="65.747" r="2.74138" transform="rotate(89.7437 46.8949 65.747)" fill="#778999" fill-opacity="0.25"/>
<circle cx="46.9882" cy="86.5813" r="2.74138" transform="rotate(89.7437 46.9882 86.5813)" fill="#778999" fill-opacity="0.25"/>
<circle cx="47.081" cy="107.416" r="2.74138" transform="rotate(89.7437 47.081 107.416)" fill="#778999" fill-opacity="0.25"/>
<circle cx="47.1742" cy="128.25" r="2.74138" transform="rotate(89.7437 47.1742 128.25)" fill="#778999" fill-opacity="0.25"/>
<circle cx="47.2675" cy="149.084" r="2.74138" transform="rotate(89.7437 47.2675 149.084)" fill="#778999" fill-opacity="0.25"/>
<circle cx="24.6845" cy="3.3423" r="2.74138" transform="rotate(89.7437 24.6845 3.3423)" fill="#778999" fill-opacity="0.25"/>
<circle cx="24.7777" cy="24.1766" r="2.74138" transform="rotate(89.7437 24.7777 24.1766)" fill="#778999" fill-opacity="0.25"/>
<circle cx="24.871" cy="45.0109" r="2.74138" transform="rotate(89.7437 24.871 45.0109)" fill="#778999" fill-opacity="0.25"/>
<circle cx="24.964" cy="65.8451" r="2.74138" transform="rotate(89.7437 24.964 65.8451)" fill="#778999" fill-opacity="0.25"/>
<circle cx="25.0573" cy="86.6794" r="2.74138" transform="rotate(89.7437 25.0573 86.6794)" fill="#778999" fill-opacity="0.25"/>
<circle cx="25.1506" cy="107.514" r="2.74138" transform="rotate(89.7437 25.1506 107.514)" fill="#778999" fill-opacity="0.25"/>
<circle cx="25.2438" cy="128.348" r="2.74138" transform="rotate(89.7437 25.2438 128.348)" fill="#778999" fill-opacity="0.25"/>
<circle cx="25.3368" cy="149.182" r="2.74138" transform="rotate(89.7437 25.3368 149.182)" fill="#778999" fill-opacity="0.25"/>
<circle cx="2.75382" cy="3.44038" r="2.74138" transform="rotate(89.7437 2.75382 3.44038)" fill="#778999" fill-opacity="0.25"/>
<circle cx="2.84708" cy="24.2747" r="2.74138" transform="rotate(89.7437 2.84708 24.2747)" fill="#778999" fill-opacity="0.25"/>
<circle cx="2.94035" cy="45.109" r="2.74138" transform="rotate(89.7437 2.94035 45.109)" fill="#778999" fill-opacity="0.25"/>
<circle cx="3.03336" cy="65.9432" r="2.74138" transform="rotate(89.7437 3.03336 65.9432)" fill="#778999" fill-opacity="0.25"/>
<circle cx="3.12662" cy="86.7775" r="2.74138" transform="rotate(89.7437 3.12662 86.7775)" fill="#778999" fill-opacity="0.25"/>
<circle cx="3.21989" cy="107.612" r="2.74138" transform="rotate(89.7437 3.21989 107.612)" fill="#778999" fill-opacity="0.25"/>
<circle cx="3.31315" cy="128.446" r="2.74138" transform="rotate(89.7437 3.31315 128.446)" fill="#778999" fill-opacity="0.25"/>
<circle cx="3.40617" cy="149.28" r="2.74138" transform="rotate(89.7437 3.40617 149.28)" fill="#778999" fill-opacity="0.25"/>
<circle cx="1429.27" cy="2.75362" r="2.74138" transform="rotate(89.7437 1429.27 2.75362)" fill="#778999" fill-opacity="0.25"/>
<circle cx="1429.36" cy="23.5879" r="2.74138" transform="rotate(89.7437 1429.36 23.5879)" fill="#778999" fill-opacity="0.25"/>
<circle cx="1429.46" cy="44.4222" r="2.74138" transform="rotate(89.7437 1429.46 44.4222)" fill="#778999" fill-opacity="0.25"/>
<circle cx="1429.55" cy="65.2564" r="2.74138" transform="rotate(89.7437 1429.55 65.2564)" fill="#778999" fill-opacity="0.25"/>
<circle cx="1429.64" cy="86.0907" r="2.74138" transform="rotate(89.7437 1429.64 86.0907)" fill="#778999" fill-opacity="0.25"/>
<circle cx="1429.73" cy="106.925" r="2.74138" transform="rotate(89.7437 1429.73 106.925)" fill="#778999" fill-opacity="0.25"/>
<circle cx="1429.83" cy="127.759" r="2.74138" transform="rotate(89.7437 1429.83 127.759)" fill="#778999" fill-opacity="0.25"/>
<circle cx="1429.92" cy="148.594" r="2.74138" transform="rotate(89.7437 1429.92 148.594)" fill="#778999" fill-opacity="0.25"/>
<circle cx="1407.34" cy="2.8517" r="2.74138" transform="rotate(89.7437 1407.34 2.8517)" fill="#778999" fill-opacity="0.25"/>
<circle cx="1407.43" cy="23.686" r="2.74138" transform="rotate(89.7437 1407.43 23.686)" fill="#778999" fill-opacity="0.25"/>
<circle cx="1407.52" cy="44.5203" r="2.74138" transform="rotate(89.7437 1407.52 44.5203)" fill="#778999" fill-opacity="0.25"/>
<circle cx="1407.62" cy="65.3545" r="2.74138" transform="rotate(89.7437 1407.62 65.3545)" fill="#778999" fill-opacity="0.25"/>
<circle cx="1407.71" cy="86.1888" r="2.74138" transform="rotate(89.7437 1407.71 86.1888)" fill="#778999" fill-opacity="0.25"/>
<circle cx="1407.8" cy="107.023" r="2.74138" transform="rotate(89.7437 1407.8 107.023)" fill="#778999" fill-opacity="0.25"/>
<circle cx="1407.9" cy="127.857" r="2.74138" transform="rotate(89.7437 1407.9 127.857)" fill="#778999" fill-opacity="0.25"/>
<circle cx="1407.99" cy="148.692" r="2.74138" transform="rotate(89.7437 1407.99 148.692)" fill="#778999" fill-opacity="0.25"/>
<circle cx="1385.41" cy="2.94984" r="2.74138" transform="rotate(89.7437 1385.41 2.94984)" fill="#778999" fill-opacity="0.25"/>
<circle cx="1385.5" cy="23.7841" r="2.74138" transform="rotate(89.7437 1385.5 23.7841)" fill="#778999" fill-opacity="0.25"/>
<circle cx="1385.59" cy="44.6184" r="2.74138" transform="rotate(89.7437 1385.59 44.6184)" fill="#778999" fill-opacity="0.25"/>
<circle cx="1385.69" cy="65.4527" r="2.74138" transform="rotate(89.7437 1385.69 65.4527)" fill="#778999" fill-opacity="0.25"/>
<circle cx="1385.78" cy="86.2869" r="2.74138" transform="rotate(89.7437 1385.78 86.2869)" fill="#778999" fill-opacity="0.25"/>
<circle cx="1385.87" cy="107.121" r="2.74138" transform="rotate(89.7437 1385.87 107.121)" fill="#778999" fill-opacity="0.25"/>
<circle cx="1385.97" cy="127.956" r="2.74138" transform="rotate(89.7437 1385.97 127.956)" fill="#778999" fill-opacity="0.25"/>
<circle cx="1386.06" cy="148.79" r="2.74138" transform="rotate(89.7437 1386.06 148.79)" fill="#778999" fill-opacity="0.25"/>
<circle cx="1363.48" cy="3.04793" r="2.74138" transform="rotate(89.7437 1363.48 3.04793)" fill="#778999" fill-opacity="0.25"/>
<circle cx="1363.57" cy="23.8822" r="2.74138" transform="rotate(89.7437 1363.57 23.8822)" fill="#778999" fill-opacity="0.25"/>
<circle cx="1363.66" cy="44.7165" r="2.74138" transform="rotate(89.7437 1363.66 44.7165)" fill="#778999" fill-opacity="0.25"/>
<circle cx="1363.76" cy="65.5507" r="2.74138" transform="rotate(89.7437 1363.76 65.5507)" fill="#778999" fill-opacity="0.25"/>
<circle cx="1363.85" cy="86.385" r="2.74138" transform="rotate(89.7437 1363.85 86.385)" fill="#778999" fill-opacity="0.25"/>
<circle cx="1363.94" cy="107.219" r="2.74138" transform="rotate(89.7437 1363.94 107.219)" fill="#778999" fill-opacity="0.25"/>
<circle cx="1364.04" cy="128.054" r="2.74138" transform="rotate(89.7437 1364.04 128.054)" fill="#778999" fill-opacity="0.25"/>
<circle cx="1364.13" cy="148.888" r="2.74138" transform="rotate(89.7437 1364.13 148.888)" fill="#778999" fill-opacity="0.25"/>
<circle cx="1341.55" cy="3.14607" r="2.74138" transform="rotate(89.7437 1341.55 3.14607)" fill="#778999" fill-opacity="0.25"/>
<circle cx="1341.64" cy="23.9804" r="2.74138" transform="rotate(89.7437 1341.64 23.9804)" fill="#778999" fill-opacity="0.25"/>
<circle cx="1341.73" cy="44.8147" r="2.74138" transform="rotate(89.7437 1341.73 44.8147)" fill="#778999" fill-opacity="0.25"/>
<circle cx="1341.83" cy="65.6489" r="2.74138" transform="rotate(89.7437 1341.83 65.6489)" fill="#778999" fill-opacity="0.25"/>
<circle cx="1341.92" cy="86.4832" r="2.74138" transform="rotate(89.7437 1341.92 86.4832)" fill="#778999" fill-opacity="0.25"/>
<circle cx="1342.01" cy="107.317" r="2.74138" transform="rotate(89.7437 1342.01 107.317)" fill="#778999" fill-opacity="0.25"/>
<circle cx="1342.1" cy="128.152" r="2.74138" transform="rotate(89.7437 1342.1 128.152)" fill="#778999" fill-opacity="0.25"/>
<circle cx="1342.2" cy="148.986" r="2.74138" transform="rotate(89.7437 1342.2 148.986)" fill="#778999" fill-opacity="0.25"/>
<circle cx="1319.61" cy="3.24416" r="2.74138" transform="rotate(89.7437 1319.61 3.24416)" fill="#778999" fill-opacity="0.25"/>
<circle cx="1319.71" cy="24.0784" r="2.74138" transform="rotate(89.7437 1319.71 24.0784)" fill="#778999" fill-opacity="0.25"/>
<circle cx="1319.8" cy="44.9127" r="2.74138" transform="rotate(89.7437 1319.8 44.9127)" fill="#778999" fill-opacity="0.25"/>
<circle cx="1319.89" cy="65.747" r="2.74138" transform="rotate(89.7437 1319.89 65.747)" fill="#778999" fill-opacity="0.25"/>
<circle cx="1319.99" cy="86.5813" r="2.74138" transform="rotate(89.7437 1319.99 86.5813)" fill="#778999" fill-opacity="0.25"/>
<circle cx="1320.08" cy="107.416" r="2.74138" transform="rotate(89.7437 1320.08 107.416)" fill="#778999" fill-opacity="0.25"/>
<circle cx="1320.17" cy="128.25" r="2.74138" transform="rotate(89.7437 1320.17 128.25)" fill="#778999" fill-opacity="0.25"/>
<circle cx="1320.27" cy="149.084" r="2.74138" transform="rotate(89.7437 1320.27 149.084)" fill="#778999" fill-opacity="0.25"/>
<circle cx="1297.68" cy="3.3423" r="2.74138" transform="rotate(89.7437 1297.68 3.3423)" fill="#778999" fill-opacity="0.25"/>
<circle cx="1297.78" cy="24.1766" r="2.74138" transform="rotate(89.7437 1297.78 24.1766)" fill="#778999" fill-opacity="0.25"/>
<circle cx="1297.87" cy="45.0109" r="2.74138" transform="rotate(89.7437 1297.87 45.0109)" fill="#778999" fill-opacity="0.25"/>
<circle cx="1297.96" cy="65.8451" r="2.74138" transform="rotate(89.7437 1297.96 65.8451)" fill="#778999" fill-opacity="0.25"/>
<circle cx="1298.06" cy="86.6794" r="2.74138" transform="rotate(89.7437 1298.06 86.6794)" fill="#778999" fill-opacity="0.25"/>
<circle cx="1298.15" cy="107.514" r="2.74138" transform="rotate(89.7437 1298.15 107.514)" fill="#778999" fill-opacity="0.25"/>
<circle cx="1298.24" cy="128.348" r="2.74138" transform="rotate(89.7437 1298.24 128.348)" fill="#778999" fill-opacity="0.25"/>
<circle cx="1298.34" cy="149.182" r="2.74138" transform="rotate(89.7437 1298.34 149.182)" fill="#778999" fill-opacity="0.25"/>
<circle cx="1275.75" cy="3.44038" r="2.74138" transform="rotate(89.7437 1275.75 3.44038)" fill="#778999" fill-opacity="0.25"/>
<circle cx="1275.85" cy="24.2747" r="2.74138" transform="rotate(89.7437 1275.85 24.2747)" fill="#778999" fill-opacity="0.25"/>
<circle cx="1275.94" cy="45.109" r="2.74138" transform="rotate(89.7437 1275.94 45.109)" fill="#778999" fill-opacity="0.25"/>
<circle cx="1276.03" cy="65.9432" r="2.74138" transform="rotate(89.7437 1276.03 65.9432)" fill="#778999" fill-opacity="0.25"/>
<circle cx="1276.13" cy="86.7775" r="2.74138" transform="rotate(89.7437 1276.13 86.7775)" fill="#778999" fill-opacity="0.25"/>
<circle cx="1276.22" cy="107.612" r="2.74138" transform="rotate(89.7437 1276.22 107.612)" fill="#778999" fill-opacity="0.25"/>
<circle cx="1276.31" cy="128.446" r="2.74138" transform="rotate(89.7437 1276.31 128.446)" fill="#778999" fill-opacity="0.25"/>
<circle cx="1276.41" cy="149.28" r="2.74138" transform="rotate(89.7437 1276.41 149.28)" fill="#778999" fill-opacity="0.25"/>
</svg>
