<svg width="31" height="18" viewBox="0 0 31 18" fill="none" xmlns="http://www.w3.org/2000/svg">
<g filter="url(#filter0_d)">
<path d="M12.6938 6.65853C12.8641 6.52578 13.0444 6.40638 13.2329 6.30137C13.4531 6.17059 13.7107 6.11756 13.9644 6.15076C14.0344 6.16366 14.1014 6.18911 14.1624 6.2259C14.1964 6.23996 14.2244 6.26556 14.2415 6.29823C14.2587 6.3309 14.2638 6.36856 14.2561 6.40464C14.2499 6.42979 14.2369 6.45271 14.2185 6.47085L14.1624 6.52712C14.1491 6.54003 14.1331 6.54977 14.1155 6.55558C14.0974 6.56172 14.0783 6.56485 14.0591 6.56485C13.8847 6.56694 13.7156 6.62493 13.5764 6.73036C13.4411 6.83433 13.3168 6.95202 13.2055 7.08156C13.0767 7.22458 12.9608 7.37877 12.8591 7.54232C12.7441 7.72984 12.6552 7.93232 12.5951 8.14409C12.845 7.99977 13.0419 7.85556 13.1857 7.71147C13.2154 7.68162 13.2467 7.65344 13.2794 7.62706C13.3027 7.60316 13.3278 7.58103 13.3543 7.56086C13.4753 7.44485 13.6071 7.34087 13.748 7.25037C13.8886 7.16681 14.0484 7.12119 14.2119 7.11797C14.3659 7.11797 14.5142 7.18064 14.657 7.30598C14.8569 7.48252 15.0506 7.55148 15.238 7.51286C15.4226 7.47587 15.6 7.40878 15.763 7.31425C15.9253 7.21429 16.0689 7.1642 16.1939 7.16398C16.2181 7.16689 16.241 7.17665 16.2599 7.19211C16.2774 7.21429 16.2902 7.23987 16.2975 7.26725C16.31 7.30499 16.2975 7.34912 16.2599 7.39966C16.2285 7.44279 16.1941 7.48361 16.1569 7.5218C15.9341 7.73725 15.6484 7.87561 15.3416 7.91669C15.1631 7.94175 14.9824 7.94807 14.8025 7.93556C14.6203 7.92154 14.4419 7.87678 14.2746 7.80315C14.1494 7.74048 14.0339 7.75935 13.9281 7.85976C13.7031 8.06675 13.4687 8.26414 13.225 8.45193C13.1027 8.54441 12.9707 8.62322 12.8314 8.68695C12.6896 8.75171 12.5364 8.78771 12.3807 8.79287C11.906 8.78669 11.719 8.55499 11.8198 8.09775C11.825 8.08173 11.8311 8.06603 11.8382 8.05075C11.9123 7.84603 12.0033 7.64785 12.1101 7.45824C11.8234 7.56097 11.5233 7.62119 11.2193 7.63699C10.7067 7.67472 9.31963 7.6873 7.05795 7.67472L6.37397 7.66512C5.67426 7.65917 4.90889 7.63412 4.07786 7.58999C4.06427 7.58992 4.0509 7.58651 4.03893 7.58005C4.00791 7.58005 3.99538 7.52809 4.00165 7.42481C4.00791 7.32154 4.05477 7.25931 4.1422 7.24143C4.74843 7.21672 5.49191 7.21043 6.37265 7.22257L10.299 7.2603C11.1809 7.24772 11.862 7.1226 12.3424 6.88494C12.4691 6.8255 12.5872 6.74935 12.6938 6.65853Z" fill="#F2F5FF"/>
<path d="M16.8505 8.91503C16.5628 8.91503 16.3378 8.83349 16.1757 8.67041C15.932 8.42613 15.8102 8.08408 15.8102 7.64428C15.8102 7.23096 15.9694 6.83927 16.2879 6.4692C16.3434 6.40397 16.4125 6.35166 16.4902 6.31593C16.5679 6.2802 16.6525 6.26191 16.738 6.26232C16.8941 6.26232 17.0004 6.30304 17.0567 6.38446C17.0733 6.40975 17.083 6.43898 17.0847 6.4692C17.0847 6.51952 17.0535 6.56961 16.991 6.61948C16.8525 6.75902 16.743 6.92484 16.6689 7.10726C16.5949 7.28968 16.5578 7.48506 16.5598 7.68202C16.5546 7.90821 16.6166 8.13083 16.738 8.32153C16.7941 8.4098 16.8628 8.45393 16.9442 8.45393C17.0058 8.44954 17.0646 8.42645 17.1128 8.38773C17.2706 8.25801 17.4012 8.09827 17.4972 7.9177C17.6219 7.67981 17.6844 7.45417 17.6846 7.24078C17.6845 7.05905 17.6215 6.88298 17.5064 6.74262C17.4487 6.68714 17.3817 6.64231 17.3084 6.61021C17.2774 6.59134 17.2491 6.57413 17.2243 6.55858C17.2114 6.54984 17.2012 6.5378 17.1945 6.5237C17.1879 6.50961 17.1852 6.49398 17.1867 6.47847C17.1867 6.34077 17.2417 6.24048 17.3517 6.17758C17.477 6.11163 17.6174 6.07968 17.7588 6.0849C17.9157 6.08386 18.0709 6.11778 18.2132 6.1842C18.3537 6.25041 18.4428 6.34287 18.4804 6.46159C18.5169 6.57396 18.5358 6.69131 18.5365 6.80948L18.5273 6.97863C18.5273 7.33589 19.0802 7.51453 20.1859 7.51453L25.4624 7.47679C25.9875 7.47679 26.4529 7.48617 26.8588 7.50493C26.9525 7.52369 26.9993 7.60203 26.9993 7.73995C26.9993 7.81542 26.9743 7.85282 26.9244 7.85282C25.7366 7.91571 23.8248 7.94705 21.189 7.94683C20.4829 7.94683 19.9893 7.94374 19.7082 7.93756C19.3868 7.93176 19.0666 7.8972 18.7513 7.83428C18.6869 7.81596 18.6203 7.80639 18.5533 7.80582C18.4938 7.80778 18.4351 7.82057 18.3801 7.84355C18.3141 7.86871 18.2344 7.969 18.1409 8.14444C17.8802 8.65816 17.4501 8.91503 16.8505 8.91503Z" fill="#F2F5FF"/>
<path d="M15.5 15C11.3776 15 8.02537 11.6356 8.02537 7.5C8.02537 3.36437 11.3776 0 15.5 0C19.6224 0 22.976 3.36437 22.976 7.5C22.976 11.6356 19.6224 15 15.5 15ZM15.5 0.491217C11.6479 0.491217 8.51369 3.6358 8.51369 7.5C8.51369 11.3642 11.6482 14.5088 15.5 14.5088C19.3518 14.5088 22.4863 11.3642 22.4863 7.5C22.4863 3.6358 19.3525 0.491217 15.5 0.491217Z" fill="#F2F5FF"/>
</g>
<defs>
<filter id="filter0_d" x="0" y="0" width="31" height="23" filterUnits="userSpaceOnUse" color-interpolation-filters="sRGB">
<feFlood flood-opacity="0" result="BackgroundImageFix"/>
<feColorMatrix in="SourceAlpha" type="matrix" values="0 0 0 0 0 0 0 0 0 0 0 0 0 0 0 0 0 0 127 0"/>
<feOffset dy="4"/>
<feGaussianBlur stdDeviation="2"/>
<feColorMatrix type="matrix" values="0 0 0 0 0 0 0 0 0 0 0 0 0 0 0 0 0 0 0.25 0"/>
<feBlend mode="normal" in2="BackgroundImageFix" result="effect1_dropShadow"/>
<feBlend mode="normal" in="SourceGraphic" in2="effect1_dropShadow" result="shape"/>
</filter>
</defs>
</svg>
