<svg width="30" height="48" viewBox="0 0 30 48" fill="none" xmlns="http://www.w3.org/2000/svg">
<path d="M30 9.3V1C30 0.4 29.6 0 29 0C28.4 0 28 0.4 28 1V9.3C28 12.7 26.3 15.8 23.4 17.6L15 22.8L6.6 17.6C3.7 15.8 2 12.7 2 9.3V1C2 0.4 1.6 0 1 0C0.4 0 0 0.4 0 1V9.3C0 13.4 2.1 17.2 5.6 19.3L13.2 24L5.6 28.7C2 30.8 0 34.6 0 38.7V47C0 47.6 0.4 48 1 48C1.6 48 2 47.6 2 47V38.7C2 35.3 3.7 32.2 6.6 30.4L15 25.2L23.4 30.4C26.3 32.2 28 35.3 28 38.7V47C28 47.6 28.4 48 29 48C29.6 48 30 47.6 30 47V38.7C30 34.6 27.9 30.8 24.4 28.7L16.9 24L24.5 19.3C28 17.2 30 13.4 30 9.3Z" fill="#024A69"/>
<path d="M4.79999 6.79999H25.3C25.9 6.79999 26.3 6.39999 26.3 5.79999C26.3 5.19999 25.9 4.79999 25.3 4.79999H4.79999C4.19999 4.79999 3.79999 5.19999 3.79999 5.79999C3.79999 6.29999 4.19999 6.79999 4.79999 6.79999Z" fill="#024A69"/>
<path d="M24.1 10.6C24.1 9.99998 23.7 9.59998 23.1 9.59998H6.89999C6.29999 9.59998 5.89999 9.99998 5.89999 10.6C5.89999 11.2 6.29999 11.6 6.89999 11.6H23C23.6 11.6 24.1 11.2 24.1 10.6Z" fill="#024A69"/>
<path d="M9.20001 14.5C8.60001 14.5 8.20001 14.9 8.20001 15.5C8.20001 16.1 8.60001 16.5 9.20001 16.5H20.8C21.4 16.5 21.8 16.1 21.8 15.5C21.8 14.9 21.4 14.5 20.8 14.5H9.20001Z" fill="#024A69"/>
<path d="M25.2 42.3H4.79999C4.19999 42.3 3.79999 42.7 3.79999 43.3C3.79999 43.9 4.19999 44.3 4.79999 44.3H25.3C25.9 44.3 26.3 43.9 26.3 43.3C26.2 42.8 25.8 42.3 25.2 42.3Z" fill="#024A69"/>
<path d="M5.89999 38.5C5.89999 39.1 6.29999 39.5 6.89999 39.5H23C23.6 39.5 24 39.1 24 38.5C24 37.9 23.6 37.5 23 37.5H6.89999C6.39999 37.5 5.89999 37.9 5.89999 38.5Z" fill="#024A69"/>
<path d="M20.8 34.6C21.4 34.6 21.8 34.2 21.8 33.6C21.8 33 21.4 32.6 20.8 32.6H9.20001C8.60001 32.6 8.20001 33 8.20001 33.6C8.20001 34.2 8.60001 34.6 9.20001 34.6H20.8Z" fill="#024A69"/>
</svg>
