<svg width="13" height="8" viewBox="0 0 13 8" fill="none" xmlns="http://www.w3.org/2000/svg">
<path fill-rule="evenodd" clip-rule="evenodd" d="M10.57 0.235035L4.87825 5.92742L1.47716 2.52572C1.39796 2.44364 1.30321 2.3782 1.19843 2.33313C1.09365 2.28806 0.98094 2.26434 0.866883 2.26329C0.752825 2.26225 0.639701 2.2839 0.534112 2.32705C0.428523 2.37019 0.332576 2.43392 0.251883 2.51453C0.171191 2.59515 0.107374 2.69106 0.0641329 2.79661C0.0208915 2.90215 -0.00090802 3.01523 2.8972e-05 3.12929C0.000965964 3.24335 0.024616 3.3561 0.0695856 3.46092C0.114555 3.56575 0.179944 3.66057 0.26195 3.73985L4.27065 7.74855C4.43174 7.90959 4.6502 8 4.87797 8C5.10575 8 5.3242 7.90959 5.48528 7.74855L11.7847 1.44916C11.9383 1.28662 12.0225 1.07052 12.0194 0.846854C12.0162 0.623189 11.9259 0.409596 11.7677 0.251463C11.6095 0.09333 11.3959 0.00313797 11.1722 8.03928e-05C10.9485 -0.00297718 10.7325 0.0812858 10.57 0.235035Z" fill="#E97770"/>
</svg>
