<svg width="17" height="17" viewBox="0 0 17 17" fill="none" xmlns="http://www.w3.org/2000/svg">
<path fill-rule="evenodd" clip-rule="evenodd" d="M8.50001 0C6.81886 0 5.17548 0.498506 3.77766 1.4325C2.37984 2.36649 1.29036 3.69401 0.647018 5.24718C0.00367309 6.80035 -0.164642 8.50943 0.163332 10.1583C0.491307 11.8071 1.30086 13.3217 2.4896 14.5104C3.67835 15.6992 5.1929 16.5087 6.84174 16.8367C8.49057 17.1646 10.1996 16.9963 11.7528 16.353C13.306 15.7096 14.6335 14.6202 15.5675 13.2223C16.5015 11.8245 17 10.1811 17 8.5C16.9974 6.24644 16.1011 4.08591 14.5076 2.4924C12.9141 0.898899 10.7536 0.0025565 8.50001 0ZM8.50001 15.8409C7.04811 15.8409 5.62882 15.4104 4.42161 14.6038C3.2144 13.7971 2.27351 12.6506 1.71789 11.3092C1.16227 9.96787 1.01689 8.49188 1.30014 7.06788C1.58339 5.64388 2.28254 4.33583 3.30919 3.30918C4.33583 2.28254 5.64386 1.58341 7.06786 1.30016C8.49186 1.01691 9.96788 1.16227 11.3093 1.71788C12.6506 2.2735 13.7971 3.21442 14.6037 4.42163C15.4104 5.62883 15.8409 7.04811 15.8409 8.5C15.8409 10.4469 15.0675 12.3141 13.6908 13.6908C12.3141 15.0675 10.4469 15.8409 8.50001 15.8409Z" fill="#E97770"/>
<path fill-rule="evenodd" clip-rule="evenodd" d="M11.7676 5.95403L7.92756 9.79451L5.63295 7.49948C5.57951 7.4441 5.51559 7.39995 5.4449 7.36955C5.3742 7.33914 5.29816 7.32313 5.22121 7.32243C5.14426 7.32172 5.06794 7.33634 4.9967 7.36544C4.92546 7.39455 4.86073 7.43755 4.80629 7.49194C4.75185 7.54632 4.70879 7.61103 4.67962 7.68224C4.65045 7.75345 4.63574 7.82974 4.63637 7.90669C4.637 7.98364 4.65296 8.05971 4.6833 8.13043C4.71364 8.20116 4.75776 8.26513 4.81308 8.31862L7.51763 11.0232C7.62631 11.1318 7.7737 11.1928 7.92737 11.1928C8.08105 11.1928 8.22843 11.1318 8.33711 11.0232L12.5871 6.77316C12.6908 6.6635 12.7476 6.5177 12.7455 6.3668C12.7433 6.2159 12.6824 6.0718 12.5757 5.96511C12.4689 5.85842 12.3248 5.79757 12.1739 5.79551C12.023 5.79345 11.8772 5.8503 11.7676 5.95403Z" fill="#E97770"/>
</svg>
