<svg width="14" height="14" viewBox="0 0 14 14" fill="none" xmlns="http://www.w3.org/2000/svg">
<g clip-path="url(#clip0)">
<path fill-rule="evenodd" clip-rule="evenodd" d="M7 0C5.61553 0 4.26216 0.410534 3.11102 1.1797C1.95987 1.94887 1.06265 3.04212 0.532838 4.32121C0.0030249 5.60029 -0.135588 7.00777 0.134509 8.36563C0.404606 9.7235 1.07129 10.9708 2.05026 11.9498C3.02923 12.9287 4.2765 13.5954 5.63437 13.8655C6.99224 14.1356 8.3997 13.997 9.67878 13.4671C10.9579 12.9373 12.0511 12.0401 12.8203 10.889C13.5895 9.73784 14 8.38447 14 7C13.9979 5.14413 13.2597 3.36487 11.9474 2.05257C10.6351 0.740269 8.85587 0.00210536 7 0ZM7 13.0455C5.80433 13.0455 4.6355 12.6909 3.64133 12.0266C2.64716 11.3623 1.8723 10.4182 1.41473 9.3135C0.957166 8.20884 0.837437 6.99331 1.0707 5.82061C1.30397 4.6479 1.87974 3.57068 2.72521 2.72521C3.57068 1.87974 4.64789 1.30398 5.82059 1.07072C6.99329 0.837452 8.20884 0.957162 9.3135 1.41473C10.4182 1.87229 11.3623 2.64717 12.0266 3.64134C12.6909 4.63551 13.0455 5.80432 13.0455 7C13.0455 8.60335 12.4085 10.141 11.2748 11.2748C10.1411 12.4085 8.60336 13.0455 7 13.0455ZM6.41487 4.09818C6.3246 4.01276 6.20457 3.9659 6.0803 3.9676C5.95603 3.9693 5.83732 4.01941 5.74942 4.10727C5.66151 4.19513 5.61135 4.31381 5.60959 4.43808C5.60783 4.56235 5.65461 4.68242 5.74 4.77273L7.87724 6.9109L5.74 9.04907C5.65461 9.13938 5.60783 9.25945 5.60959 9.38372C5.61135 9.50799 5.66151 9.62667 5.74942 9.71453C5.83732 9.80239 5.95603 9.8525 6.0803 9.8542C6.20457 9.8559 6.3246 9.80908 6.41487 9.72365L9.22728 6.9109L8.55242 6.23636L6.41487 4.09818Z" fill="#E97770"/>
</g>
<defs>
<clipPath id="clip0">
<rect width="14" height="14" fill="white"/>
</clipPath>
</defs>
</svg>
