<svg width="14" height="14" viewBox="0 0 14 14" fill="none" xmlns="http://www.w3.org/2000/svg">
<g clip-path="url(#clip0)">
<path fill-rule="evenodd" clip-rule="evenodd" d="M14 7C14 5.61553 13.5895 4.26216 12.8203 3.11102C12.0511 1.95987 10.9579 1.06265 9.67879 0.532838C8.39971 0.00302488 6.99223 -0.135588 5.63437 0.134509C4.2765 0.404606 3.02921 1.07129 2.05024 2.05026C1.07127 3.02923 0.404602 4.2765 0.134505 5.63437C-0.135592 6.99224 0.00304031 8.3997 0.532854 9.67878C1.06267 10.9579 1.95987 12.0511 3.11101 12.8203C4.26216 13.5895 5.61553 14 7 14C8.85587 13.9979 10.6351 13.2597 11.9474 11.9474C13.2597 10.6351 13.9979 8.85587 14 7ZM0.954546 7C0.954546 5.80433 1.30909 4.6355 1.97337 3.64133C2.63766 2.64716 3.58184 1.8723 4.6865 1.41473C5.79116 0.957166 7.00669 0.837437 8.17939 1.0707C9.3521 1.30397 10.4293 1.87974 11.2748 2.72521C12.1203 3.57068 12.696 4.64789 12.9293 5.82059C13.1625 6.99329 13.0428 8.20884 12.5853 9.3135C12.1277 10.4182 11.3528 11.3623 10.3587 12.0266C9.36449 12.6909 8.19568 13.0455 7 13.0455C5.39665 13.0455 3.85895 12.4085 2.72521 11.2748C1.59147 10.1411 0.954546 8.60336 0.954546 7ZM9.90182 6.41487C9.98724 6.3246 10.0341 6.20457 10.0324 6.0803C10.0307 5.95603 9.98059 5.83732 9.89273 5.74942C9.80487 5.66151 9.68619 5.61135 9.56192 5.60959C9.43765 5.60783 9.31758 5.65462 9.22727 5.74L7.0891 7.87724L4.95093 5.74C4.86062 5.65462 4.74055 5.60783 4.61628 5.60959C4.49201 5.61135 4.37333 5.66151 4.28547 5.74942C4.19761 5.83732 4.1475 5.95603 4.1458 6.0803C4.1441 6.20457 4.19092 6.3246 4.27635 6.41487L7.0891 9.22728L7.76364 8.55242L9.90182 6.41487Z" fill="#E97770"/>
</g>
<defs>
<clipPath id="clip0">
<rect x="14" width="14" height="14" transform="rotate(90 14 0)" fill="white"/>
</clipPath>
</defs>
</svg>
