<svg width="13" height="13" viewBox="0 0 13 13" fill="none" xmlns="http://www.w3.org/2000/svg">
<path d="M6.5 0C2.91023 0 0 2.91023 0 6.5C0 10.0898 2.91023 13 6.5 13C10.0898 13 13 10.0898 13 6.5C13 2.91023 10.0898 0 6.5 0ZM6.5 12.5568C3.16136 12.5568 0.443182 9.83864 0.443182 6.5C0.443182 3.16136 3.16136 0.443182 6.5 0.443182C9.83864 0.443182 12.5568 3.16136 12.5568 6.5C12.5568 9.83864 9.83864 12.5568 6.5 12.5568Z" fill="#EAEAEC"/>
<path d="M8.43525 4.56464C8.52388 4.65328 8.65684 4.65328 8.74547 4.56464C8.83411 4.476 8.83411 4.34305 8.74547 4.25441C7.50456 3.0135 5.49547 3.0135 4.25456 4.25441C3.01366 5.49532 3.01366 7.50441 4.25456 8.74532C4.87502 9.36578 5.68752 9.676 6.50002 9.676C7.31252 9.676 8.12502 9.36578 8.74547 8.74532C8.83411 8.65668 8.83411 8.52373 8.74547 8.43509C8.65684 8.34646 8.52388 8.34646 8.43525 8.43509C7.37161 9.49873 5.62843 9.49873 4.56479 8.43509C3.50116 7.37146 3.50116 5.62828 4.56479 4.56464C5.62843 3.501 7.37161 3.501 8.43525 4.56464Z" fill="#EAEAEC"/>
</svg>
