<svg width="48" height="48" viewBox="0 0 48 48" fill="none" xmlns="http://www.w3.org/2000/svg">
<path d="M45 2C43.7 0.7 42 0 40.2 0C38.5 0 36.8 0.7 35.5 2L30.2 7.3C29.5 8 28.6 8.2 27.7 8C26.1 7.6 24.4 8 23.2 9.2L20 12.4C19.8 12.6 19.7 12.8 19.7 13.1C19.7 13.4 19.8 13.6 20 13.8L22.9 16.7L8.5 31.1C7.3 32.3 6.4 33.9 6 35.6C5.7 37 5 38.2 4 39.2L1 42.2C0.4 42.8 0 43.7 0 44.6C0 45.5 0.4 46.4 1 47C1.6 47.6 2.5 48 3.4 48C4.3 48 5.2 47.6 5.8 47L8.8 44C9.8 43 11 42.3 12.4 42C14.1 41.6 15.7 40.7 16.9 39.5L19.4 37C18.4 38.9 17.6 40.9 17.6 42.1C17.6 45.3 20.2 48 23.5 48C26.7 48 29.4 45.4 29.4 42.1C29.4 39.5 25.8 33.6 24.7 31.7L31.4 25L33.3 26.9C33.5 27.1 33.7 27.2 34 27.2C34.3 27.2 34.5 27.1 34.7 26.9L37.9 23.7C39.1 22.5 39.5 20.8 39.1 19.2C38.9 18.3 39.1 17.3 39.8 16.7L45.1 11.4C47.7 8.9 47.7 4.6 45 2ZM27.4 42.1C27.4 44.2 25.7 46 23.5 46C21.4 46 19.6 44.3 19.6 42.1C19.6 40.6 21.7 36.6 23.5 33.7C25.3 36.6 27.4 40.6 27.4 42.1ZM15.5 38.1C14.5 39.1 13.3 39.8 11.9 40.1C10.2 40.5 8.6 41.4 7.4 42.6L4.4 45.6C3.9 46.1 2.9 46.1 2.4 45.6C1.6 44.9 2.1 43.9 2.4 43.6L5.4 40.6C6.6 39.4 7.5 37.8 7.9 36.1C8.2 34.7 8.9 33.5 9.9 32.5L24.3 18.1L29.9 23.7L15.5 38.1ZM43.6 10.1L38.3 15.4C37.1 16.6 36.7 18.3 37.1 19.9C37.3 20.8 37.1 21.8 36.4 22.4L33.9 24.9L22.2 13.1L24.7 10.6C25.4 9.9 26.3 9.7 27.2 9.9C28.8 10.3 30.5 9.9 31.7 8.7L37 3.4C37.8 2.5 39 2 40.3 2C41.6 2 42.7 2.5 43.6 3.4C45.5 5.2 45.5 8.2 43.6 10.1Z" fill="#024A69"/>
</svg>
