<svg width="46" height="48" viewBox="0 0 46 48" fill="none" xmlns="http://www.w3.org/2000/svg">
<mask id="path-1-inside-1" fill="white">
<path fill-rule="evenodd" clip-rule="evenodd" d="M43.9912 6.85714C43.8483 6.85852 43.7061 6.87777 43.5679 6.91434C43.4285 6.87792 43.2852 6.85868 43.1411 6.85714H35.4958C35.0494 6.85714 34.6214 7.03487 34.3057 7.351C33.9901 7.66714 33.8127 8.09589 33.8127 8.54297C33.8127 8.99005 33.9901 9.4188 34.3057 9.73493C34.6214 10.0511 35.0494 10.2285 35.4958 10.2285H39.1861L27.0039 22.2056L22.0276 15.68C21.8775 15.4833 21.6868 15.3214 21.4687 15.2051C21.2505 15.0887 21.01 15.0206 20.7633 15.0056C20.5157 14.9855 20.2668 15.0202 20.0341 15.1071C19.8015 15.194 19.5907 15.3311 19.4168 15.5086L6.90587 27.4286V2.28571C6.90587 1.33714 6.73129 0 5.77505 0C4.81882 0 3.4826 0.194286 3.4826 1.14286V4.57143H1.78351C1.29885 4.60606 0.847362 4.83059 0.526946 5.19643C0.20653 5.56227 0.0430153 6.03988 0.0718752 6.52567C0.0718752 7.61138 0.254457 8 1.19928 8H3.48146V11.4286H1.19928C0.254457 11.4286 0.0718752 12.7657 0.0718752 13.7143C0.0718752 14.6629 0.254457 14.8571 1.19928 14.8571H3.48146V19.4286H1.19928C0.254457 19.4286 0.0718752 20.7657 0.0718752 21.7143C0.0718752 22.6629 0.254457 22.8571 1.19928 22.8571H3.48146V27.4286H1.19928C0.254457 27.4286 0.0718752 28.7657 0.0718752 29.7143C0.0718752 30.6629 0.254457 30.8571 1.19928 30.8571H3.48146V35.4286H2.34037C1.38413 35.4286 0 35.2114 0 37.7143C0 38.6629 0.243046 38.8571 1.19928 38.8571H3.48146L3.47118 41.8401C3.47563 42.064 3.52413 42.2846 3.61385 42.4897C3.70358 42.6947 3.83278 42.8799 3.99409 43.0349C4.1554 43.1899 4.34566 43.3116 4.55394 43.3929C4.76223 43.4741 4.98444 43.5135 5.20792 43.5086H8.10288L8.04696 45.7143C8.04696 46.6629 8.00588 47.9886 10.3291 48C11.2854 48 11.4702 46.6629 11.4702 45.7143V43.4286H16.0346V45.7143C16.0346 46.6629 15.8748 48.0229 18.4788 48C19.435 47.9886 19.4578 46.6629 19.4578 45.7143V43.4286H24.0222V45.7143C24.0222 46.6629 24.0656 48 26.3044 48C27.2606 48 27.4455 46.6629 27.4455 45.7143V43.4286H32.0098V45.7143C32.0098 46.6629 31.9174 48 34.292 48C35.2482 48 35.4331 46.6629 35.4331 45.7143V43.4286H39.9974V45.7143C39.9974 46.6629 40.633 48 41.5892 48C41.8154 48.0015 42.0397 47.9584 42.2492 47.873C42.4587 47.7877 42.6493 47.6617 42.8102 47.5025C42.9711 47.3433 43.099 47.1538 43.1867 46.945C43.2745 46.7362 43.3202 46.5122 43.3214 46.2857L43.4207 43.4286C43.6065 43.4136 43.7868 43.3585 43.9494 43.2673C44.112 43.1761 44.253 43.051 44.3627 42.9001C44.4725 42.7493 44.5485 42.5764 44.5854 42.3934C44.6223 42.2105 44.6193 42.0218 44.5766 41.8401C44.5653 41.3899 44.376 40.9625 44.0504 40.6518C43.7248 40.3411 43.2895 40.1723 42.8399 40.1828H6.94581L6.90587 32C7.03025 31.9314 7.94084 30.96 8.04696 30.8571L20.4632 19.3256L25.4691 25.8856C25.6223 26.0845 25.816 26.2487 26.0373 26.3669C26.2587 26.4851 26.5026 26.5548 26.7528 26.5714C27.0034 26.5808 27.2533 26.5381 27.4865 26.4456C27.7196 26.3531 27.931 26.213 28.1073 26.0343L42.291 11.8856V15.76C42.2791 15.9909 42.3142 16.2217 42.3941 16.4386C42.4741 16.6555 42.5974 16.8538 42.7563 17.0215C42.9153 17.1891 43.1066 17.3228 43.3187 17.4141C43.5308 17.5053 43.7593 17.5522 43.9901 17.5522C44.2209 17.5522 44.4494 17.5053 44.6615 17.4141C44.8736 17.3228 45.065 17.1891 45.2239 17.0215C45.3829 16.8538 45.5061 16.6555 45.586 16.4386C45.666 16.2217 45.7011 15.9909 45.6892 15.76V8.64007C45.6993 8.17836 45.5263 7.7315 45.208 7.39732C44.8897 7.06314 44.4522 6.86883 43.9912 6.85714Z"/>
</mask>
<path fill-rule="evenodd" clip-rule="evenodd" d="M43.9912 6.85714C43.8483 6.85852 43.7061 6.87777 43.5679 6.91434C43.4285 6.87792 43.2852 6.85868 43.1411 6.85714H35.4958C35.0494 6.85714 34.6214 7.03487 34.3057 7.351C33.9901 7.66714 33.8127 8.09589 33.8127 8.54297C33.8127 8.99005 33.9901 9.4188 34.3057 9.73493C34.6214 10.0511 35.0494 10.2285 35.4958 10.2285H39.1861L27.0039 22.2056L22.0276 15.68C21.8775 15.4833 21.6868 15.3214 21.4687 15.2051C21.2505 15.0887 21.01 15.0206 20.7633 15.0056C20.5157 14.9855 20.2668 15.0202 20.0341 15.1071C19.8015 15.194 19.5907 15.3311 19.4168 15.5086L6.90587 27.4286V2.28571C6.90587 1.33714 6.73129 0 5.77505 0C4.81882 0 3.4826 0.194286 3.4826 1.14286V4.57143H1.78351C1.29885 4.60606 0.847362 4.83059 0.526946 5.19643C0.20653 5.56227 0.0430153 6.03988 0.0718752 6.52567C0.0718752 7.61138 0.254457 8 1.19928 8H3.48146V11.4286H1.19928C0.254457 11.4286 0.0718752 12.7657 0.0718752 13.7143C0.0718752 14.6629 0.254457 14.8571 1.19928 14.8571H3.48146V19.4286H1.19928C0.254457 19.4286 0.0718752 20.7657 0.0718752 21.7143C0.0718752 22.6629 0.254457 22.8571 1.19928 22.8571H3.48146V27.4286H1.19928C0.254457 27.4286 0.0718752 28.7657 0.0718752 29.7143C0.0718752 30.6629 0.254457 30.8571 1.19928 30.8571H3.48146V35.4286H2.34037C1.38413 35.4286 0 35.2114 0 37.7143C0 38.6629 0.243046 38.8571 1.19928 38.8571H3.48146L3.47118 41.8401C3.47563 42.064 3.52413 42.2846 3.61385 42.4897C3.70358 42.6947 3.83278 42.8799 3.99409 43.0349C4.1554 43.1899 4.34566 43.3116 4.55394 43.3929C4.76223 43.4741 4.98444 43.5135 5.20792 43.5086H8.10288L8.04696 45.7143C8.04696 46.6629 8.00588 47.9886 10.3291 48C11.2854 48 11.4702 46.6629 11.4702 45.7143V43.4286H16.0346V45.7143C16.0346 46.6629 15.8748 48.0229 18.4788 48C19.435 47.9886 19.4578 46.6629 19.4578 45.7143V43.4286H24.0222V45.7143C24.0222 46.6629 24.0656 48 26.3044 48C27.2606 48 27.4455 46.6629 27.4455 45.7143V43.4286H32.0098V45.7143C32.0098 46.6629 31.9174 48 34.292 48C35.2482 48 35.4331 46.6629 35.4331 45.7143V43.4286H39.9974V45.7143C39.9974 46.6629 40.633 48 41.5892 48C41.8154 48.0015 42.0397 47.9584 42.2492 47.873C42.4587 47.7877 42.6493 47.6617 42.8102 47.5025C42.9711 47.3433 43.099 47.1538 43.1867 46.945C43.2745 46.7362 43.3202 46.5122 43.3214 46.2857L43.4207 43.4286C43.6065 43.4136 43.7868 43.3585 43.9494 43.2673C44.112 43.1761 44.253 43.051 44.3627 42.9001C44.4725 42.7493 44.5485 42.5764 44.5854 42.3934C44.6223 42.2105 44.6193 42.0218 44.5766 41.8401C44.5653 41.3899 44.376 40.9625 44.0504 40.6518C43.7248 40.3411 43.2895 40.1723 42.8399 40.1828H6.94581L6.90587 32C7.03025 31.9314 7.94084 30.96 8.04696 30.8571L20.4632 19.3256L25.4691 25.8856C25.6223 26.0845 25.816 26.2487 26.0373 26.3669C26.2587 26.4851 26.5026 26.5548 26.7528 26.5714C27.0034 26.5808 27.2533 26.5381 27.4865 26.4456C27.7196 26.3531 27.931 26.213 28.1073 26.0343L42.291 11.8856V15.76C42.2791 15.9909 42.3142 16.2217 42.3941 16.4386C42.4741 16.6555 42.5974 16.8538 42.7563 17.0215C42.9153 17.1891 43.1066 17.3228 43.3187 17.4141C43.5308 17.5053 43.7593 17.5522 43.9901 17.5522C44.2209 17.5522 44.4494 17.5053 44.6615 17.4141C44.8736 17.3228 45.065 17.1891 45.2239 17.0215C45.3829 16.8538 45.5061 16.6555 45.586 16.4386C45.666 16.2217 45.7011 15.9909 45.6892 15.76V8.64007C45.6993 8.17836 45.5263 7.7315 45.208 7.39732C44.8897 7.06314 44.4522 6.86883 43.9912 6.85714Z" stroke="#024A69" stroke-width="3" mask="url(#path-1-inside-1)"/>
</svg>
