<svg width="8" height="6" viewBox="0 0 8 6" fill="none" xmlns="http://www.w3.org/2000/svg">
<path fill-rule="evenodd" clip-rule="evenodd" d="M0.095696 0.656469C0.0343232 0.583624 0 0.486164 0 0.384716C0 0.283268 0.0343232 0.185793 0.095696 0.112948C0.125932 0.0772029 0.162093 0.0487917 0.202034 0.0293914C0.241974 0.00999114 0.2849 0 0.328255 0C0.371609 0 0.414509 0.00999114 0.45445 0.0293914C0.49439 0.0487917 0.530551 0.0772029 0.560787 0.112948L4.06084 4.20252L7.43974 0.114194C7.46982 0.0785831 7.50579 0.050286 7.54555 0.0309559C7.58531 0.0116258 7.62803 0.00165564 7.67119 0.00165564C7.71435 0.00165564 7.75707 0.0116258 7.79683 0.0309559C7.83659 0.050286 7.87259 0.0785831 7.90267 0.114194C7.96502 0.18645 8 0.284147 8 0.385962C8 0.487777 7.96502 0.585457 7.90267 0.657714L4.06084 5.22733L0.095696 0.656469Z" fill="#F2ECDB"/>
</svg>
