<svg width="16" height="16" viewBox="0 0 16 16" fill="none" xmlns="http://www.w3.org/2000/svg">
<g clip-path="url(#clip0)">
<path d="M9.25929 10.742L8.13996 8.03094C8.38528 7.93981 8.59076 7.76536 8.72049 7.53808C8.85022 7.31079 8.89593 7.04514 8.84964 6.78757C8.80334 6.53 8.66799 6.2969 8.46724 6.12901C8.26649 5.96112 8.01312 5.86914 7.75142 5.86914C7.48972 5.86914 7.23635 5.96112 7.0356 6.12901C6.83485 6.2969 6.69949 6.53 6.6532 6.78757C6.6069 7.04514 6.65262 7.31079 6.78234 7.53808C6.91207 7.76536 7.11755 7.93981 7.36287 8.03094L6.24823 10.742H9.25929Z" fill="#024A69"/>
<path d="M4.93676 4.94608C4.36489 5.2265 3.85973 5.62615 3.45525 6.11815C3.00559 6.67045 2.67767 7.3115 2.49298 7.99933C2.28959 8.75965 2.24688 9.55402 2.36757 10.3318C2.50014 11.1829 2.80828 11.9971 3.27241 12.7228C2.4825 12.2193 1.80433 11.5591 1.27988 10.783C0.715092 9.94354 0.326707 8.9981 0.138279 8.00402C-0.062513 6.93433 -0.0441712 5.83501 0.192195 4.77261C0.447073 3.63596 0.928634 2.56242 1.60806 1.61621L4.93676 4.94608Z" fill="#024A69"/>
<path d="M4.93678 11.0635C5.2176 11.6351 5.61719 12.1402 6.10885 12.545C6.66122 12.9952 7.30278 13.3232 7.99121 13.5073C8.75112 13.7107 9.54511 13.7534 10.3225 13.6327C11.1736 13.5001 11.9878 13.192 12.7135 12.7278C12.21 13.5181 11.5493 14.1963 10.7725 14.7204C9.93255 15.2858 8.98621 15.6742 7.99121 15.862C6.92112 16.0628 5.82141 16.0444 4.75862 15.808C3.62226 15.5534 2.54906 15.0718 1.60339 14.3922L4.93678 11.0635Z" fill="#E97770"/>
<path d="M11.0538 11.063C11.629 10.778 12.1363 10.3727 12.5411 9.87447C12.9912 9.31711 13.3172 8.6702 13.4976 7.97688C13.697 7.21164 13.7338 6.41306 13.6054 5.63273C13.4616 4.77761 13.1424 3.96152 12.6677 3.23584C13.466 3.73681 14.1526 4.3967 14.6849 5.17445C15.2613 6.01635 15.6583 6.9679 15.8511 7.96985C16.0592 9.04523 16.0441 10.1519 15.8065 11.2212C15.5523 12.3651 15.0682 13.4453 14.3836 14.3963L11.0538 11.063Z" fill="#024A69"/>
<path d="M11.0233 4.91566C10.7394 4.34905 10.3378 3.84956 9.8454 3.45057C9.29411 3.00586 8.65503 2.68272 7.97008 2.50236C7.21418 2.30295 6.42505 2.26304 5.65288 2.38515C4.80611 2.51692 3.99569 2.82218 3.2724 3.28179C3.77222 2.49564 4.42707 1.81966 5.19695 1.29512C6.03033 0.730589 6.9692 0.34029 7.95718 0.147661C9.01915 -0.0586408 10.1118 -0.0486749 11.1698 0.176963C12.3016 0.42048 13.373 0.888801 14.3204 1.55415L11.0233 4.91566Z" fill="#E97770"/>
</g>
<defs>
<clipPath id="clip0">
<rect width="15.9965" height="16" fill="white"/>
</clipPath>
</defs>
</svg>
