<svg width="162" height="50" viewBox="0 0 162 50" fill="none" xmlns="http://www.w3.org/2000/svg">
<path d="M60.0426 31.3798C56.3691 31.3798 53.8721 29.2399 53.8721 25.4551C53.8721 21.9455 56.5658 19.514 60.1409 19.514C63.716 19.514 66.367 21.9291 66.367 25.4125C66.3765 26.1267 66.2267 26.834 65.9285 27.483C65.6304 28.132 65.1914 28.7065 64.6434 29.1646V29.2137L67.0748 29.1646V31.383L60.0426 31.3798ZM60.1409 22.0438C58.2796 22.0438 56.864 23.4791 56.864 25.4879C56.864 27.5589 58.2009 28.9974 60.1114 28.9974C62.0218 28.9974 63.3883 27.5589 63.3883 25.4879C63.4047 23.4791 62.0644 22.0438 60.1409 22.0438Z" fill="#E97770"/>
<path d="M74.9099 31.691C71.8755 31.691 69.9946 29.797 69.9946 27.0214V19.8122H72.7472V26.792C72.7472 28.034 73.3501 29.1776 74.9165 29.1776C76.4829 29.1776 77.0858 28.034 77.0858 26.792V19.8253H79.8777V27.0345C79.8876 29.797 77.928 31.691 74.9099 31.691Z" fill="#E97770"/>
<path d="M91.6058 31.3797L90.7079 29.1121H86.235L85.3862 31.3797H82.3518L87.1984 19.8253H89.9084L94.7025 31.3797H91.6058ZM88.5059 22.9089L87.0345 26.8707H89.9411L88.5059 22.9089Z" fill="#E97770"/>
<path d="M97.3011 31.3797V19.8253H100.109V28.9482H104.579V31.3797H97.3011Z" fill="#E97770"/>
<path d="M107.519 31.3797V19.8253H110.327V31.3797H107.519Z" fill="#E97770"/>
<path d="M119.279 22.2076V31.383H116.494V22.2076H113.217V19.8253H122.556V22.2076H119.279Z" fill="#E97770"/>
<path d="M131.076 26.484V31.3797H128.284V26.484L123.936 19.8253H127.314L129.779 24.0853L132.243 19.8253H135.52L131.076 26.484Z" fill="#E97770"/>
<path d="M60.58 38.6676C60.3257 38.3687 60.0113 38.1266 59.6573 37.9573C59.3033 37.7879 58.9176 37.6949 58.5253 37.6845C57.8044 37.6845 56.9098 37.9303 56.9098 38.8445C56.9098 39.6113 57.5947 39.8571 58.6859 40.1979C60.2556 40.7058 62.2905 41.3743 62.2905 43.6747C62.2905 46.3355 60.154 47.5251 57.8667 47.5251C56.2282 47.5251 54.5537 46.9221 53.5444 45.8604L55.3697 44.0024C55.6774 44.3692 56.0586 44.6675 56.4887 44.8781C56.9188 45.0886 57.3882 45.2066 57.8667 45.2247C58.7154 45.2247 59.4658 44.897 59.4658 43.9696C59.4658 43.0881 58.5876 42.8096 57.0671 42.3312C55.5991 41.856 54.1179 41.1056 54.1179 39.0182C54.1179 36.4556 56.4347 35.3939 58.5909 35.3939C59.9823 35.3954 61.3263 35.8993 62.3757 36.8128L60.58 38.6676ZM71.4987 47.5152C67.8941 47.5152 65.2168 45.0346 65.2168 41.3808C65.2168 37.6747 67.8908 35.3415 71.4987 35.3415C75.1065 35.3415 77.7969 37.6747 77.7969 41.3808C77.7969 45.051 75.1229 47.5316 71.4987 47.5316V47.5152ZM71.4987 37.8549C69.5325 37.8549 68.2021 39.3557 68.2021 41.3808C68.2021 43.4682 69.5554 44.9855 71.4987 44.9855C73.4419 44.9855 74.8116 43.4846 74.8116 41.3808C74.8116 39.3721 73.4583 37.8713 71.4987 37.8713V37.8549ZM81.2671 47.2236V35.6692H84.0755V44.7921H88.5485V47.2236H81.2671ZM96.2984 47.5316C93.2639 47.5316 91.383 45.6408 91.383 42.8653V35.6561H94.1585V42.6228C94.1585 43.8648 94.7615 45.0051 96.3278 45.0051C97.8942 45.0051 98.5004 43.8648 98.5004 42.6228V35.6692H101.289V42.8784C101.283 45.6408 99.3262 47.5316 96.3049 47.5316H96.2984ZM110.104 38.0515V47.2269H107.312V38.0515H104.035V35.6692H113.381V38.0515H110.104ZM116.274 47.2269V35.6692H119.079V47.2236L116.274 47.2269ZM128.838 47.5349C125.234 47.5349 122.556 45.0543 122.556 41.4005C122.556 37.6943 125.234 35.3612 128.838 35.3612C132.443 35.3612 135.14 37.6943 135.14 41.4005C135.149 45.051 132.472 47.5316 128.848 47.5316L128.838 47.5349ZM128.838 37.8745C126.872 37.8745 125.542 39.3754 125.542 41.4005C125.542 43.4879 126.898 45.0051 128.838 45.0051C130.778 45.0051 132.151 43.5043 132.151 41.4005C132.161 39.3721 130.808 37.8713 128.848 37.8713L128.838 37.8745ZM145.96 47.2269L141.31 39.6703H141.261L141.323 47.2269H138.613V35.6692H141.795L146.429 43.2061H146.478L146.412 35.6692H149.122V47.2236L145.96 47.2269ZM159.258 38.6676C159.003 38.3687 158.689 38.1266 158.335 37.9573C157.981 37.7879 157.595 37.6949 157.203 37.6845C156.482 37.6845 155.584 37.9303 155.584 38.8445C155.584 39.6113 156.272 39.8571 157.364 40.1979C158.93 40.7058 160.968 41.3743 160.968 43.6747C160.968 46.3355 158.832 47.5251 156.544 47.5251C154.906 47.5251 153.231 46.9221 152.222 45.8604L154.047 44.0024C154.355 44.3695 154.736 44.6681 155.166 44.8786C155.596 45.0892 156.066 45.2071 156.544 45.2247C157.393 45.2247 158.144 44.897 158.144 43.9696C158.144 43.0881 157.262 42.8096 155.745 42.3312C154.228 41.8527 152.796 41.1056 152.796 39.0182C152.796 36.4556 155.112 35.3939 157.265 35.3939C158.658 35.3949 160.003 35.8988 161.053 36.8128L159.258 38.6676Z" fill="#EAEAEC"/>
<path d="M61.5434 15.5359L57.2506 10.2141H57.2179V15.5359H54.4751V3.98145H57.2179V8.68054H57.267L61.3959 3.98145H64.8826L59.9115 9.30316L65.1841 15.5293L61.5434 15.5359ZM67.7138 15.5359V3.98145H75.4801V6.34738H70.4042V8.51997H75.2049V10.7581H70.4042V13.1568H75.7751V15.5391L67.7138 15.5359ZM84.8718 10.6401V15.5359H82.0798V10.6401L77.7346 3.98145H81.1131L83.5774 8.25782L86.0416 3.99783H89.3185L84.8718 10.6401Z" fill="#EAEAEC"/>
<path d="M28.9151 33.5621L25.4318 25.088C26.1983 24.8033 26.8404 24.2581 27.2458 23.5479C27.6511 22.8377 27.794 22.0077 27.6493 21.2028C27.5047 20.398 27.0817 19.6696 26.4544 19.145C25.8271 18.6204 25.0354 18.3329 24.2177 18.3329C23.3999 18.3329 22.6082 18.6204 21.9809 19.145C21.3536 19.6696 20.9307 20.398 20.786 21.2028C20.6414 22.0077 20.7842 22.8377 21.1896 23.5479C21.5949 24.2581 22.237 24.8033 23.0036 25.088L19.5202 33.5621H28.9151Z" fill="#EAEAEC"/>
<path d="M15.4241 15.4539C13.6355 16.3342 12.0565 17.588 10.7938 19.1306C9.38753 20.8555 8.36333 22.8593 7.78886 25.0094C7.15304 27.3828 7.01911 29.8626 7.39563 32.2907C7.81153 34.9509 8.77446 37.496 10.2236 39.7653C7.75488 38.191 5.63573 36.1265 3.99747 33.6998C2.23161 31.0749 1.01856 28.1181 0.432187 25.0094C-0.195754 21.6673 -0.138899 18.2326 0.59931 14.9132C1.39406 11.3608 2.89882 8.00576 5.02315 5.04968L15.4241 15.4539Z" fill="#E97770"/>
<path d="M15.4241 34.5649C16.3055 36.3518 17.5592 37.9295 19.1008 39.1919C20.8257 40.5989 22.8293 41.6242 24.9796 42.2001C27.3533 42.8398 29.8346 42.976 32.2641 42.5999C34.9232 42.1852 37.4672 41.2234 39.7355 39.7752C38.1623 42.2448 36.0976 44.3641 33.6699 46.0013C31.0457 47.7682 28.0886 48.9814 24.9796 49.5666C21.6377 50.1962 18.2026 50.1393 14.8834 49.3995C11.3324 48.6051 7.97859 47.1015 5.02313 44.9789L15.4241 34.5649Z" fill="#EAEAEC"/>
<path d="M34.5351 34.5649C36.3308 33.6739 37.9143 32.4078 39.1785 30.8521C40.5872 29.1126 41.6063 27.0912 42.167 24.9242C42.7872 22.5304 42.8988 20.0333 42.4947 17.5937C42.0497 14.9233 41.0567 12.3739 39.5782 10.106C42.072 11.6722 44.2169 13.7346 45.8797 16.165C47.6806 18.7976 48.9209 21.7723 49.5237 24.9045C50.172 28.2645 50.1252 31.7217 49.386 35.063C48.5895 38.6375 47.0756 42.0132 44.936 44.9855L34.5351 34.5649Z" fill="#E97770"/>
<path d="M34.44 15.3589C33.5511 13.5851 32.2943 12.0211 30.7535 10.7712C29.0298 9.38669 27.0332 8.3817 24.8944 7.82196C22.5324 7.19671 20.0664 7.06839 17.6524 7.44511C15.0101 7.86128 12.4815 8.81604 10.2236 10.2502C11.7855 7.79515 13.8315 5.68442 16.2367 4.04695C18.8391 2.28213 21.7719 1.06264 24.8583 0.462006C28.1761 -0.1835 31.5901 -0.152292 34.8955 0.55376C38.4273 1.31571 41.7702 2.7788 44.7263 4.85635L34.44 15.3589Z" fill="#EAEAEC"/>
</svg>
