<svg width="15" height="15" viewBox="0 0 15 15" fill="none" xmlns="http://www.w3.org/2000/svg">
<path d="M11.1422 0H3.85781C2.83499 0.00108572 1.85437 0.407881 1.13113 1.13113C0.407881 1.85437 0.00108572 2.83499 0 3.85781L0 11.1422C0.00108572 12.165 0.407881 13.1456 1.13113 13.8689C1.85437 14.5921 2.83499 14.9989 3.85781 15H11.1422C12.165 14.9989 13.1456 14.5921 13.8689 13.8689C14.5921 13.1456 14.9989 12.165 15 11.1422V3.85781C14.9989 2.83499 14.5921 1.85437 13.8689 1.13113C13.1456 0.407881 12.165 0.00108572 11.1422 0V0ZM13.6617 11.1422C13.6606 11.8101 13.3948 12.4503 12.9226 12.9226C12.4503 13.3948 11.8101 13.6606 11.1422 13.6617H3.85781C3.18992 13.6606 2.5497 13.3948 2.07743 12.9226C1.60516 12.4503 1.33937 11.8101 1.33828 11.1422V3.85781C1.33937 3.18992 1.60516 2.5497 2.07743 2.07743C2.5497 1.60516 3.18992 1.33937 3.85781 1.33828H11.1422C11.8101 1.33937 12.4503 1.60516 12.9226 2.07743C13.3948 2.5497 13.6606 3.18992 13.6617 3.85781V11.1422Z" fill="white"/>
<path d="M7.49999 3.49042C6.70697 3.49042 5.93176 3.72557 5.27239 4.16615C4.61302 4.60673 4.0991 5.23294 3.79563 5.96559C3.49215 6.69824 3.41275 7.50444 3.56746 8.28222C3.72217 9.06 4.10405 9.77443 4.6648 10.3352C5.22554 10.8959 5.93998 11.2778 6.71776 11.4325C7.49554 11.5872 8.30173 11.5078 9.03439 11.2043C9.76704 10.9009 10.3932 10.387 10.8338 9.72759C11.2744 9.06821 11.5096 8.29301 11.5096 7.49999C11.5083 6.43696 11.0855 5.41784 10.3338 4.66616C9.58214 3.91449 8.56301 3.49166 7.49999 3.49042V3.49042ZM7.49999 10.1736C6.97134 10.1736 6.45455 10.0169 6.01498 9.72317C5.57542 9.42948 5.23281 9.01204 5.03047 8.52364C4.82814 8.03524 4.77517 7.49781 4.87826 6.9793C4.98135 6.4608 5.23588 5.98451 5.60965 5.61065C5.98343 5.2368 6.45966 4.98217 6.97814 4.87896C7.49663 4.77575 8.03407 4.82861 8.52251 5.03083C9.01096 5.23306 9.42847 5.57558 9.72226 6.01508C10.0161 6.45459 10.1729 6.97133 10.173 7.49999C10.1723 8.20869 9.89039 8.88813 9.38926 9.38926C8.88814 9.89039 8.20869 10.1723 7.49999 10.173V10.1736Z" fill="white"/>
<path d="M11.4978 4.22869C12.012 4.22869 12.4289 3.81184 12.4289 3.29763C12.4289 2.78342 12.012 2.36658 11.4978 2.36658C10.9836 2.36658 10.5668 2.78342 10.5668 3.29763C10.5668 3.81184 10.9836 4.22869 11.4978 4.22869Z" fill="white"/>
</svg>
