<svg width="226" height="30" viewBox="0 0 226 30" fill="none" xmlns="http://www.w3.org/2000/svg">
<path d="M41.456 8.672H42.992V13.568H43.12L48.128 8.672H50.272L44.8 13.904L50.64 20H48.4L43.12 14.336H42.992V20H41.456V8.672ZM52.871 16.736C52.871 17.0667 52.9403 17.3707 53.079 17.648C53.2283 17.9147 53.4203 18.144 53.655 18.336C53.8897 18.528 54.1617 18.6773 54.471 18.784C54.7803 18.8907 55.1003 18.944 55.431 18.944C55.879 18.944 56.2683 18.8427 56.599 18.64C56.9297 18.4267 57.2337 18.1493 57.511 17.808L58.599 18.64C57.799 19.6747 56.679 20.192 55.239 20.192C54.6417 20.192 54.0977 20.0907 53.607 19.888C53.127 19.6853 52.7163 19.408 52.375 19.056C52.0443 18.6933 51.7883 18.272 51.607 17.792C51.4257 17.3013 51.335 16.7733 51.335 16.208C51.335 15.6427 51.431 15.12 51.623 14.64C51.8257 14.1493 52.0977 13.728 52.439 13.376C52.791 13.0133 53.207 12.7307 53.687 12.528C54.167 12.3253 54.6897 12.224 55.255 12.224C55.927 12.224 56.4923 12.3413 56.951 12.576C57.4203 12.8107 57.8043 13.12 58.103 13.504C58.4017 13.8773 58.615 14.304 58.743 14.784C58.8817 15.2533 58.951 15.7333 58.951 16.224V16.736H52.871ZM57.415 15.584C57.4043 15.264 57.351 14.9707 57.255 14.704C57.1697 14.4373 57.0363 14.208 56.855 14.016C56.6737 13.8133 56.4443 13.6587 56.167 13.552C55.9003 13.4347 55.5857 13.376 55.223 13.376C54.871 13.376 54.5457 13.4453 54.247 13.584C53.959 13.712 53.7137 13.8827 53.511 14.096C53.3083 14.3093 53.1483 14.5493 53.031 14.816C52.9243 15.072 52.871 15.328 52.871 15.584H57.415ZM60.0816 12.416H61.7456L64.0016 18.336H64.0336L66.1776 12.416H67.7296L64.1296 21.632C64.0016 21.9627 63.8683 22.2613 63.7296 22.528C63.591 22.8053 63.4256 23.04 63.2336 23.232C63.0416 23.424 62.807 23.5733 62.5296 23.68C62.263 23.7867 61.9323 23.84 61.5376 23.84C61.3243 23.84 61.1056 23.824 60.8816 23.792C60.6683 23.7707 60.4603 23.7173 60.2576 23.632L60.4336 22.32C60.7216 22.4373 61.0096 22.496 61.2976 22.496C61.5216 22.496 61.7083 22.464 61.8576 22.4C62.0176 22.3467 62.151 22.2613 62.2576 22.144C62.375 22.0373 62.471 21.9093 62.5456 21.76C62.6203 21.6107 62.695 21.44 62.7696 21.248L63.2336 20.048L60.0816 12.416ZM133.913 17.632C134.191 18.048 134.543 18.3573 134.969 18.56C135.407 18.752 135.855 18.848 136.313 18.848C136.569 18.848 136.831 18.8107 137.097 18.736C137.364 18.6507 137.604 18.528 137.817 18.368C138.041 18.208 138.223 18.0107 138.361 17.776C138.5 17.5413 138.569 17.2693 138.569 16.96C138.569 16.5227 138.431 16.192 138.153 15.968C137.876 15.7333 137.529 15.5413 137.113 15.392C136.708 15.232 136.26 15.0827 135.769 14.944C135.289 14.7947 134.841 14.592 134.425 14.336C134.02 14.08 133.679 13.7387 133.401 13.312C133.124 12.8747 132.985 12.288 132.985 11.552C132.985 11.2213 133.055 10.8693 133.193 10.496C133.343 10.1227 133.572 9.78133 133.881 9.472C134.191 9.16267 134.585 8.90667 135.065 8.704C135.556 8.49067 136.143 8.384 136.825 8.384C137.444 8.384 138.036 8.46933 138.601 8.64C139.167 8.81067 139.663 9.15733 140.089 9.68L138.841 10.816C138.649 10.5173 138.377 10.2773 138.025 10.096C137.673 9.91467 137.273 9.824 136.825 9.824C136.399 9.824 136.041 9.88267 135.753 10C135.476 10.1067 135.252 10.2507 135.081 10.432C134.911 10.6027 134.788 10.7893 134.713 10.992C134.649 11.1947 134.617 11.3813 134.617 11.552C134.617 12.032 134.756 12.4 135.033 12.656C135.311 12.912 135.652 13.12 136.057 13.28C136.473 13.44 136.921 13.584 137.401 13.712C137.892 13.84 138.34 14.0213 138.745 14.256C139.161 14.48 139.508 14.7893 139.785 15.184C140.063 15.568 140.201 16.1013 140.201 16.784C140.201 17.328 140.095 17.8187 139.881 18.256C139.679 18.6933 139.401 19.0613 139.049 19.36C138.697 19.6587 138.281 19.888 137.801 20.048C137.321 20.208 136.809 20.288 136.265 20.288C135.54 20.288 134.852 20.16 134.201 19.904C133.551 19.648 133.033 19.2533 132.649 18.72L133.913 17.632ZM143.588 16.208C143.588 16.592 143.647 16.9493 143.764 17.28C143.881 17.6 144.047 17.8773 144.26 18.112C144.473 18.336 144.735 18.5173 145.044 18.656C145.353 18.784 145.7 18.848 146.084 18.848C146.468 18.848 146.815 18.784 147.124 18.656C147.433 18.5173 147.695 18.336 147.908 18.112C148.121 17.8773 148.287 17.6 148.404 17.28C148.521 16.9493 148.58 16.592 148.58 16.208C148.58 15.824 148.521 15.472 148.404 15.152C148.287 14.8213 148.121 14.544 147.908 14.32C147.695 14.0853 147.433 13.904 147.124 13.776C146.815 13.6373 146.468 13.568 146.084 13.568C145.7 13.568 145.353 13.6373 145.044 13.776C144.735 13.904 144.473 14.0853 144.26 14.32C144.047 14.544 143.881 14.8213 143.764 15.152C143.647 15.472 143.588 15.824 143.588 16.208ZM142.052 16.208C142.052 15.6533 142.153 15.136 142.356 14.656C142.569 14.176 142.857 13.7547 143.22 13.392C143.583 13.0293 144.009 12.7467 144.5 12.544C144.991 12.3307 145.519 12.224 146.084 12.224C146.649 12.224 147.177 12.3307 147.668 12.544C148.159 12.7467 148.585 13.0293 148.948 13.392C149.311 13.7547 149.593 14.176 149.796 14.656C150.009 15.136 150.116 15.6533 150.116 16.208C150.116 16.7627 150.009 17.2853 149.796 17.776C149.593 18.256 149.311 18.6773 148.948 19.04C148.585 19.392 148.159 19.6747 147.668 19.888C147.177 20.0907 146.649 20.192 146.084 20.192C145.519 20.192 144.991 20.0907 144.5 19.888C144.009 19.6747 143.583 19.392 143.22 19.04C142.857 18.6773 142.569 18.256 142.356 17.776C142.153 17.2853 142.052 16.7627 142.052 16.208ZM152.352 7.904H153.792V20H152.352V7.904ZM163.124 20H161.684V18.832H161.652C161.47 19.2373 161.156 19.568 160.708 19.824C160.26 20.0693 159.742 20.192 159.156 20.192C158.782 20.192 158.43 20.1333 158.1 20.016C157.769 19.9093 157.476 19.7387 157.22 19.504C156.974 19.2693 156.777 18.9707 156.628 18.608C156.478 18.2347 156.404 17.7973 156.404 17.296V12.416H157.844V16.896C157.844 17.248 157.892 17.552 157.988 17.808C158.084 18.0533 158.212 18.256 158.372 18.416C158.532 18.5653 158.713 18.6773 158.916 18.752C159.129 18.816 159.348 18.848 159.572 18.848C159.87 18.848 160.148 18.8 160.404 18.704C160.66 18.608 160.884 18.4587 161.076 18.256C161.268 18.0427 161.417 17.776 161.524 17.456C161.63 17.136 161.684 16.7573 161.684 16.32V12.416H163.124V20ZM169.678 13.664H167.614V17.104C167.614 17.3173 167.62 17.5307 167.63 17.744C167.641 17.9467 167.678 18.1333 167.742 18.304C167.817 18.464 167.924 18.5973 168.062 18.704C168.212 18.8 168.425 18.848 168.702 18.848C168.873 18.848 169.049 18.832 169.23 18.8C169.412 18.768 169.577 18.7093 169.726 18.624V19.936C169.556 20.032 169.332 20.096 169.054 20.128C168.788 20.1707 168.58 20.192 168.43 20.192C167.876 20.192 167.444 20.1173 167.134 19.968C166.836 19.808 166.612 19.6053 166.462 19.36C166.324 19.1147 166.238 18.8427 166.206 18.544C166.185 18.2347 166.174 17.9253 166.174 17.616V13.664H164.51V12.416H166.174V10.288H167.614V12.416H169.678V13.664ZM171.968 12.416H173.408V20H171.968V12.416ZM171.632 9.696C171.632 9.408 171.733 9.16267 171.936 8.96C172.149 8.74667 172.4 8.64 172.688 8.64C172.976 8.64 173.221 8.74667 173.424 8.96C173.637 9.16267 173.744 9.408 173.744 9.696C173.744 9.984 173.637 10.2347 173.424 10.448C173.221 10.6507 172.976 10.752 172.688 10.752C172.4 10.752 172.149 10.6507 171.936 10.448C171.733 10.2347 171.632 9.984 171.632 9.696ZM177.188 16.208C177.188 16.592 177.247 16.9493 177.364 17.28C177.481 17.6 177.647 17.8773 177.86 18.112C178.073 18.336 178.335 18.5173 178.644 18.656C178.953 18.784 179.3 18.848 179.684 18.848C180.068 18.848 180.415 18.784 180.724 18.656C181.033 18.5173 181.295 18.336 181.508 18.112C181.721 17.8773 181.887 17.6 182.004 17.28C182.121 16.9493 182.18 16.592 182.18 16.208C182.18 15.824 182.121 15.472 182.004 15.152C181.887 14.8213 181.721 14.544 181.508 14.32C181.295 14.0853 181.033 13.904 180.724 13.776C180.415 13.6373 180.068 13.568 179.684 13.568C179.3 13.568 178.953 13.6373 178.644 13.776C178.335 13.904 178.073 14.0853 177.86 14.32C177.647 14.544 177.481 14.8213 177.364 15.152C177.247 15.472 177.188 15.824 177.188 16.208ZM175.652 16.208C175.652 15.6533 175.753 15.136 175.956 14.656C176.169 14.176 176.457 13.7547 176.82 13.392C177.183 13.0293 177.609 12.7467 178.1 12.544C178.591 12.3307 179.119 12.224 179.684 12.224C180.249 12.224 180.777 12.3307 181.268 12.544C181.759 12.7467 182.185 13.0293 182.548 13.392C182.911 13.7547 183.193 14.176 183.396 14.656C183.609 15.136 183.716 15.6533 183.716 16.208C183.716 16.7627 183.609 17.2853 183.396 17.776C183.193 18.256 182.911 18.6773 182.548 19.04C182.185 19.392 181.759 19.6747 181.268 19.888C180.777 20.0907 180.249 20.192 179.684 20.192C179.119 20.192 178.591 20.0907 178.1 19.888C177.609 19.6747 177.183 19.392 176.82 19.04C176.457 18.6773 176.169 18.256 175.956 17.776C175.753 17.2853 175.652 16.7627 175.652 16.208ZM185.84 12.416H187.28V13.584H187.312C187.493 13.1787 187.808 12.8533 188.256 12.608C188.704 12.352 189.221 12.224 189.808 12.224C190.171 12.224 190.517 12.2827 190.848 12.4C191.189 12.5067 191.483 12.6773 191.728 12.912C191.984 13.1467 192.187 13.4507 192.336 13.824C192.485 14.1867 192.56 14.6187 192.56 15.12V20H191.12V15.52C191.12 15.168 191.072 14.8693 190.976 14.624C190.88 14.368 190.752 14.1653 190.592 14.016C190.432 13.856 190.245 13.744 190.032 13.68C189.829 13.6053 189.616 13.568 189.392 13.568C189.093 13.568 188.816 13.616 188.56 13.712C188.304 13.808 188.08 13.9627 187.888 14.176C187.696 14.3787 187.547 14.64 187.44 14.96C187.333 15.28 187.28 15.6587 187.28 16.096V20H185.84V12.416ZM199.082 14.32C198.912 14.1067 198.698 13.9307 198.442 13.792C198.197 13.6427 197.893 13.568 197.53 13.568C197.189 13.568 196.89 13.6427 196.634 13.792C196.389 13.9307 196.266 14.1387 196.266 14.416C196.266 14.64 196.336 14.8213 196.474 14.96C196.624 15.0987 196.794 15.2107 196.986 15.296C197.189 15.3813 197.402 15.4453 197.626 15.488C197.85 15.5307 198.042 15.568 198.202 15.6C198.512 15.6747 198.8 15.7653 199.066 15.872C199.344 15.9787 199.578 16.1173 199.77 16.288C199.973 16.4587 200.128 16.6667 200.234 16.912C200.352 17.1573 200.41 17.456 200.41 17.808C200.41 18.2347 200.32 18.6027 200.138 18.912C199.957 19.2107 199.722 19.456 199.434 19.648C199.146 19.84 198.816 19.9787 198.442 20.064C198.08 20.1493 197.712 20.192 197.338 20.192C196.709 20.192 196.154 20.096 195.674 19.904C195.205 19.712 194.784 19.36 194.41 18.848L195.498 17.952C195.733 18.1867 195.994 18.3947 196.282 18.576C196.57 18.7573 196.922 18.848 197.338 18.848C197.52 18.848 197.701 18.832 197.882 18.8C198.074 18.7573 198.24 18.6987 198.378 18.624C198.528 18.5387 198.645 18.4373 198.73 18.32C198.826 18.192 198.874 18.048 198.874 17.888C198.874 17.6747 198.805 17.4987 198.666 17.36C198.538 17.2213 198.378 17.1147 198.186 17.04C198.005 16.9547 197.808 16.8907 197.594 16.848C197.392 16.7947 197.21 16.752 197.05 16.72C196.741 16.6453 196.448 16.56 196.17 16.464C195.893 16.368 195.648 16.24 195.434 16.08C195.221 15.92 195.05 15.7173 194.922 15.472C194.794 15.2267 194.73 14.9227 194.73 14.56C194.73 14.1653 194.81 13.824 194.97 13.536C195.141 13.2373 195.36 12.992 195.626 12.8C195.904 12.608 196.213 12.464 196.554 12.368C196.906 12.272 197.258 12.224 197.61 12.224C198.122 12.224 198.613 12.32 199.082 12.512C199.552 12.704 199.925 13.024 200.202 13.472L199.082 14.32Z" fill="#024A69"/>
<path d="M86.1507 20H79.6227C78.8227 20 78.0654 19.856 77.3507 19.568C76.6361 19.28 76.0121 18.88 75.4787 18.368C74.9454 17.856 74.5241 17.248 74.2147 16.544C73.9054 15.8293 73.7507 15.0507 73.7507 14.208C73.7507 13.376 73.9001 12.608 74.1987 11.904C74.4974 11.1893 74.9081 10.5707 75.4307 10.048C75.9641 9.52533 76.5827 9.12 77.2867 8.832C78.0014 8.53333 78.7747 8.384 79.6067 8.384C80.4067 8.384 81.1534 8.528 81.8467 8.816C82.5507 9.104 83.1641 9.504 83.6867 10.016C84.2094 10.5173 84.6201 11.1147 84.9187 11.808C85.2281 12.4907 85.3827 13.2373 85.3827 14.048C85.3827 14.528 85.3241 15.0027 85.2067 15.472C85.1001 15.9307 84.9347 16.3627 84.7107 16.768C84.4974 17.1733 84.2254 17.536 83.8947 17.856C83.5747 18.176 83.2067 18.432 82.7907 18.624V18.656H86.1507V20ZM79.5587 18.56C80.1774 18.56 80.7427 18.448 81.2547 18.224C81.7774 17.9893 82.2201 17.6747 82.5827 17.28C82.9561 16.8747 83.2441 16.4 83.4467 15.856C83.6494 15.312 83.7507 14.7307 83.7507 14.112C83.7507 13.5147 83.6441 12.9547 83.4307 12.432C83.2281 11.9093 82.9401 11.456 82.5667 11.072C82.1934 10.688 81.7507 10.384 81.2387 10.16C80.7267 9.936 80.1667 9.824 79.5587 9.824C78.9614 9.824 78.4067 9.936 77.8947 10.16C77.3934 10.384 76.9561 10.688 76.5827 11.072C76.2094 11.456 75.9161 11.9093 75.7027 12.432C75.4894 12.944 75.3827 13.4933 75.3827 14.08C75.3827 14.6987 75.4841 15.28 75.6867 15.824C75.8894 16.368 76.1721 16.8427 76.5347 17.248C76.9081 17.6533 77.3507 17.9733 77.8627 18.208C78.3747 18.4427 78.9401 18.56 79.5587 18.56ZM94.4392 20H92.9992V18.832H92.9672C92.7859 19.2373 92.4712 19.568 92.0232 19.824C91.5752 20.0693 91.0579 20.192 90.4712 20.192C90.0979 20.192 89.7459 20.1333 89.4152 20.016C89.0846 19.9093 88.7912 19.7387 88.5352 19.504C88.2899 19.2693 88.0926 18.9707 87.9432 18.608C87.7939 18.2347 87.7192 17.7973 87.7192 17.296V12.416H89.1592V16.896C89.1592 17.248 89.2072 17.552 89.3032 17.808C89.3992 18.0533 89.5272 18.256 89.6872 18.416C89.8472 18.5653 90.0286 18.6773 90.2312 18.752C90.4446 18.816 90.6632 18.848 90.8872 18.848C91.1859 18.848 91.4632 18.8 91.7192 18.704C91.9752 18.608 92.1992 18.4587 92.3912 18.256C92.5832 18.0427 92.7326 17.776 92.8392 17.456C92.9459 17.136 92.9992 16.7573 92.9992 16.32V12.416H94.4392V20ZM96.9619 13.344C97.3672 12.9707 97.8365 12.6933 98.3699 12.512C98.9032 12.32 99.4365 12.224 99.9699 12.224C100.525 12.224 100.999 12.2933 101.394 12.432C101.799 12.5707 102.13 12.7573 102.386 12.992C102.642 13.2267 102.829 13.4987 102.946 13.808C103.074 14.1067 103.138 14.4213 103.138 14.752V18.624C103.138 18.8907 103.143 19.136 103.154 19.36C103.165 19.584 103.181 19.7973 103.202 20H101.922C101.89 19.616 101.874 19.232 101.874 18.848H101.842C101.522 19.3387 101.143 19.6853 100.706 19.888C100.269 20.0907 99.7619 20.192 99.1859 20.192C98.8339 20.192 98.4979 20.144 98.1779 20.048C97.8579 19.952 97.5752 19.808 97.3299 19.616C97.0952 19.424 96.9085 19.1893 96.7699 18.912C96.6312 18.624 96.5619 18.2933 96.5619 17.92C96.5619 17.4293 96.6685 17.0187 96.8819 16.688C97.1059 16.3573 97.4045 16.0907 97.7779 15.888C98.1619 15.6747 98.6045 15.5253 99.1059 15.44C99.6179 15.344 100.162 15.296 100.738 15.296H101.794V14.976C101.794 14.784 101.757 14.592 101.682 14.4C101.607 14.208 101.495 14.0373 101.346 13.888C101.197 13.728 101.01 13.6053 100.786 13.52C100.562 13.424 100.295 13.376 99.9859 13.376C99.7085 13.376 99.4632 13.4027 99.2499 13.456C99.0472 13.5093 98.8605 13.5787 98.6899 13.664C98.5192 13.7387 98.3645 13.8293 98.2259 13.936C98.0872 14.0427 97.9539 14.144 97.8259 14.24L96.9619 13.344ZM101.026 16.352C100.685 16.352 100.333 16.3733 99.9699 16.416C99.6179 16.448 99.2925 16.5173 98.9939 16.624C98.7059 16.7307 98.4659 16.88 98.2739 17.072C98.0925 17.264 98.0019 17.5093 98.0019 17.808C98.0019 18.2453 98.1459 18.56 98.4339 18.752C98.7325 18.944 99.1325 19.04 99.6339 19.04C100.029 19.04 100.365 18.976 100.642 18.848C100.919 18.7093 101.143 18.5333 101.314 18.32C101.485 18.1067 101.607 17.872 101.682 17.616C101.757 17.3493 101.794 17.088 101.794 16.832V16.352H101.026ZM105.659 7.904H107.099V20H105.659V7.904ZM109.822 12.416H111.262V20H109.822V12.416ZM109.486 9.696C109.486 9.408 109.588 9.16267 109.79 8.96C110.004 8.74667 110.254 8.64 110.542 8.64C110.83 8.64 111.076 8.74667 111.278 8.96C111.492 9.16267 111.598 9.408 111.598 9.696C111.598 9.984 111.492 10.2347 111.278 10.448C111.076 10.6507 110.83 10.752 110.542 10.752C110.254 10.752 110.004 10.6507 109.79 10.448C109.588 10.2347 109.486 9.984 109.486 9.696ZM117.938 13.664H115.874V17.104C115.874 17.3173 115.88 17.5307 115.89 17.744C115.901 17.9467 115.938 18.1333 116.002 18.304C116.077 18.464 116.184 18.5973 116.322 18.704C116.472 18.8 116.685 18.848 116.962 18.848C117.133 18.848 117.309 18.832 117.49 18.8C117.672 18.768 117.837 18.7093 117.986 18.624V19.936C117.816 20.032 117.592 20.096 117.314 20.128C117.048 20.1707 116.84 20.192 116.69 20.192C116.136 20.192 115.704 20.1173 115.394 19.968C115.096 19.808 114.872 19.6053 114.722 19.36C114.584 19.1147 114.498 18.8427 114.466 18.544C114.445 18.2347 114.434 17.9253 114.434 17.616V13.664H112.77V12.416H114.434V10.288H115.874V12.416H117.938V13.664ZM119.204 12.416H120.868L123.124 18.336H123.156L125.3 12.416H126.852L123.252 21.632C123.124 21.9627 122.991 22.2613 122.852 22.528C122.713 22.8053 122.548 23.04 122.356 23.232C122.164 23.424 121.929 23.5733 121.652 23.68C121.385 23.7867 121.055 23.84 120.66 23.84C120.447 23.84 120.228 23.824 120.004 23.792C119.791 23.7707 119.583 23.7173 119.38 23.632L119.556 22.32C119.844 22.4373 120.132 22.496 120.42 22.496C120.644 22.496 120.831 22.464 120.98 22.4C121.14 22.3467 121.273 22.2613 121.38 22.144C121.497 22.0373 121.593 21.9093 121.668 21.76C121.743 21.6107 121.817 21.44 121.892 21.248L122.356 20.048L119.204 12.416Z" fill="#E97770"/>
<path d="M17.3649 20.1423L15.2656 15.0587C15.7257 14.8878 16.1111 14.5607 16.3544 14.1345C16.5977 13.7083 16.6835 13.2102 16.5966 12.7272C16.5098 12.2442 16.2559 11.8071 15.8794 11.4923C15.5029 11.1775 15.0277 11.005 14.5369 11.005C14.0461 11.005 13.5709 11.1775 13.1944 11.4923C12.8179 11.8071 12.564 12.2442 12.4772 12.7272C12.3904 13.2102 12.4761 13.7083 12.7194 14.1345C12.9627 14.5607 13.3481 14.8878 13.8082 15.0587L11.7177 20.1423H17.3649Z" fill="#024A69"/>
<path d="M9.25799 9.27633C8.18553 9.80213 7.23814 10.5515 6.4796 11.474C5.63631 12.5096 5.02133 13.7116 4.67496 15.0013C4.29353 16.4269 4.21343 17.9164 4.43976 19.3747C4.68839 20.9706 5.26627 22.4973 6.1367 23.858C4.65531 22.914 3.38348 21.676 2.39993 20.2208C1.34073 18.6468 0.612359 16.874 0.258984 15.0101C-0.11758 13.0044 -0.0831815 10.9431 0.360097 8.95107C0.838092 6.81982 1.74121 4.80688 3.0154 3.03271L9.25799 9.27633Z" fill="#024A69"/>
<path d="M9.25786 20.7438C9.7845 21.8156 10.5339 22.7626 11.456 23.5216C12.4919 24.3658 13.695 24.9808 14.9861 25.3259C16.4112 25.7074 17.9003 25.7875 19.3581 25.5611C20.9543 25.3125 22.4813 24.7347 23.8422 23.8645C22.898 25.3463 21.659 26.618 20.2022 27.6005C18.6269 28.6607 16.8521 29.3891 14.9861 29.7411C12.9793 30.1176 10.9169 30.0832 8.92375 29.64C6.79263 29.1625 4.77995 28.2595 3.00647 26.9852L9.25786 20.7438Z" fill="#E97770"/>
<path d="M20.7299 20.7439C21.8088 20.2096 22.7601 19.4496 23.5193 18.5154C24.3633 17.4703 24.9748 16.2574 25.313 14.9574C25.6871 13.5225 25.756 12.0251 25.5152 10.562C25.2456 8.95863 24.6469 7.42842 23.7567 6.06775C25.2538 7.00708 26.5414 8.2444 27.5396 9.70272C28.6207 11.2813 29.3652 13.0655 29.7267 14.9442C30.1171 16.9606 30.0886 19.0356 29.6432 21.0406C29.1664 23.1853 28.2585 25.2109 26.9747 26.9941L20.7299 20.7439Z" fill="#024A69"/>
<path d="M20.6733 9.21704C20.1408 8.15462 19.3877 7.21806 18.4642 6.46994C17.4303 5.63608 16.2318 5.03019 14.9472 4.69201C13.5296 4.31812 12.0497 4.24328 10.6016 4.47224C9.01358 4.71932 7.49371 5.29169 6.13727 6.15347C7.07462 4.67942 8.30272 3.41192 9.74654 2.4284C11.3095 1.36988 13.0702 0.638056 14.9231 0.27687C16.9147 -0.109954 18.9638 -0.0912671 20.948 0.331812C23.0706 0.788414 25.0798 1.66653 26.8565 2.91409L20.6733 9.21704Z" fill="#E97770"/>
</svg>
