<svg width="58" height="18" viewBox="0 0 58 18" fill="none" xmlns="http://www.w3.org/2000/svg">
<g clip-path="url(#clip0)">
<path d="M21.6201 11.2991C20.2974 11.2991 19.3983 10.5286 19.3983 9.16572C19.3983 7.90201 20.3682 7.02649 21.6555 7.02649C22.9429 7.02649 23.8974 7.89611 23.8974 9.15038C23.9008 9.40754 23.8469 9.66223 23.7395 9.89593C23.6322 10.1296 23.4741 10.3365 23.2768 10.5014V10.5191L24.1523 10.5014V11.3002L21.6201 11.2991ZM21.6555 7.9374C20.9853 7.9374 20.4756 8.45422 20.4756 9.17752C20.4756 9.92325 20.957 10.4412 21.6449 10.4412C22.3328 10.4412 22.8249 9.92325 22.8249 9.17752C22.8308 8.45422 22.3482 7.9374 21.6555 7.9374Z" fill="#E97770"/>
<path d="M26.9735 11.4107C25.8809 11.4107 25.2036 10.7287 25.2036 9.72929V7.13342H26.1948V9.6467C26.1948 10.0939 26.4119 10.5057 26.9759 10.5057C27.5399 10.5057 27.757 10.0939 27.757 9.6467V7.13814H28.7623V9.73401C28.7659 10.7287 28.0603 11.4107 26.9735 11.4107Z" fill="#E97770"/>
<path d="M32.9852 11.2988L32.6619 10.4823H31.0513L30.7457 11.2988H29.6531L31.3982 7.13831H32.374L34.1003 11.2988H32.9852ZM31.869 8.24863L31.3392 9.67518H32.3858L31.869 8.24863Z" fill="#E97770"/>
<path d="M35.036 11.2988V7.13831H36.0472V10.4233H37.6567V11.2988H35.036Z" fill="#E97770"/>
<path d="M38.7151 11.2988V7.13831H39.7263V11.2988H38.7151Z" fill="#E97770"/>
<path d="M42.9499 7.99612V11.3H41.9469V7.99612H40.767V7.13831H44.1298V7.99612H42.9499Z" fill="#E97770"/>
<path d="M47.1976 9.53595V11.2988H46.1922V9.53595L44.6265 7.13831H45.843L46.7303 8.67223L47.6176 7.13831H48.7976L47.1976 9.53595Z" fill="#E97770"/>
<path d="M21.8136 13.9238C21.722 13.8162 21.6089 13.7291 21.4814 13.6681C21.3539 13.6071 21.215 13.5736 21.0738 13.5699C20.8142 13.5699 20.4921 13.6584 20.4921 13.9876C20.4921 14.2637 20.7387 14.3522 21.1316 14.4749C21.6968 14.6578 22.4295 14.8985 22.4295 15.7268C22.4295 16.6849 21.6602 17.1132 20.8366 17.1132C20.2466 17.1132 19.6437 16.8961 19.2803 16.5138L19.9375 15.8448C20.0483 15.9769 20.1856 16.0843 20.3404 16.1601C20.4953 16.2359 20.6643 16.2784 20.8366 16.2849C21.1422 16.2849 21.4124 16.1669 21.4124 15.833C21.4124 15.5156 21.0962 15.4153 20.5487 15.243C20.0201 15.0719 19.4868 14.8017 19.4868 14.0501C19.4868 13.1274 20.321 12.7451 21.0974 12.7451C21.5984 12.7456 22.0823 12.927 22.4602 13.256L21.8136 13.9238ZM25.7452 17.1097C24.4472 17.1097 23.4832 16.2165 23.4832 14.9008C23.4832 13.5663 24.4461 12.7262 25.7452 12.7262C27.0443 12.7262 28.013 13.5663 28.013 14.9008C28.013 16.2224 27.0502 17.1156 25.7452 17.1156V17.1097ZM25.7452 13.6312C25.0372 13.6312 24.5581 14.1716 24.5581 14.9008C24.5581 15.6525 25.0455 16.1988 25.7452 16.1988C26.4449 16.1988 26.9381 15.6584 26.9381 14.9008C26.9381 14.1775 26.4508 13.6371 25.7452 13.6371V13.6312ZM29.2626 17.0047V12.8442H30.2738V16.1291H31.8844V17.0047H29.2626ZM34.675 17.1156C33.5823 17.1156 32.905 16.4348 32.905 15.4353V12.8395H33.9045V15.348C33.9045 15.7952 34.1216 16.2058 34.6856 16.2058C35.2496 16.2058 35.4679 15.7952 35.4679 15.348V12.8442H36.472V15.4401C36.4696 16.4348 35.7652 17.1156 34.6773 17.1156H34.675ZM39.646 13.702V17.0058H38.6407V13.702H37.4608V12.8442H40.826V13.702H39.646ZM41.8679 17.0058V12.8442H42.8779V17.0047L41.8679 17.0058ZM46.3918 17.1168C45.0938 17.1168 44.1298 16.2235 44.1298 14.9079C44.1298 13.5734 45.0938 12.7333 46.3918 12.7333C47.6897 12.7333 48.6608 13.5734 48.6608 14.9079C48.6643 16.2224 47.7003 17.1156 46.3953 17.1156L46.3918 17.1168ZM46.3918 13.6383C45.6838 13.6383 45.2047 14.1787 45.2047 14.9079C45.2047 15.6595 45.6932 16.2058 46.3918 16.2058C47.0903 16.2058 47.5847 15.6654 47.5847 14.9079C47.5882 14.1775 47.1009 13.6371 46.3953 13.6371L46.3918 13.6383ZM52.5569 17.0058L50.8826 14.2849H50.8649L50.8873 17.0058H49.9115V12.8442H51.0572L52.7257 15.5581H52.7434L52.7198 12.8442H53.6956V17.0047L52.5569 17.0058ZM57.3451 13.9238C57.2536 13.8162 57.1404 13.7291 57.0129 13.6681C56.8855 13.6071 56.7466 13.5736 56.6053 13.5699C56.3457 13.5699 56.0224 13.6584 56.0224 13.9876C56.0224 14.2637 56.2702 14.3522 56.6631 14.4749C57.2271 14.6578 57.9611 14.8985 57.9611 15.7268C57.9611 16.6849 57.1917 17.1132 56.3681 17.1132C55.7782 17.1132 55.1752 16.8961 54.8118 16.5138L55.469 15.8448C55.5798 15.977 55.717 16.0845 55.8719 16.1603C56.0268 16.2361 56.1958 16.2786 56.3681 16.2849C56.6738 16.2849 56.944 16.1669 56.944 15.833C56.944 15.5156 56.6266 15.4153 56.0802 15.243C55.5339 15.0707 55.0183 14.8017 55.0183 14.0501C55.0183 13.1274 55.8525 12.7451 56.6277 12.7451C57.1291 12.7454 57.6135 12.9269 57.9917 13.256L57.3451 13.9238Z" fill="#024A69"/>
<path d="M22.1605 5.5937L20.6148 3.67748H20.603V5.5937H19.6154V1.43323H20.603V3.12526H20.6207L22.1074 1.43323H23.3628L21.5729 3.34945L23.4714 5.59134L22.1605 5.5937ZM24.3823 5.5937V1.43323H27.1788V2.28515H25.351V3.06745H27.0797V3.87335H25.351V4.73706H27.285V5.59488L24.3823 5.5937ZM30.5605 3.83087V5.5937H29.5552V3.83087L27.9906 1.43323H29.2071L30.0944 2.97305L30.9817 1.43913H32.1617L30.5605 3.83087Z" fill="#024A69"/>
<path d="M10.4118 12.0847L9.15754 9.03342C9.43357 8.93088 9.66477 8.7346 9.81073 8.47887C9.95669 8.22314 10.0081 7.92425 9.95603 7.63444C9.90395 7.34464 9.75165 7.08236 9.52578 6.89347C9.29991 6.70457 9.01483 6.60107 8.72038 6.60107C8.42593 6.60107 8.14085 6.70457 7.91497 6.89347C7.6891 7.08236 7.53681 7.34464 7.48472 7.63444C7.43263 7.92425 7.48406 8.22314 7.63002 8.47887C7.77599 8.7346 8.00719 8.93088 8.28321 9.03342L7.02893 12.0847H10.4118Z" fill="#024A69"/>
<path d="M5.55397 5.56406C4.90993 5.88104 4.34139 6.33249 3.88672 6.88796C3.38035 7.50907 3.01156 8.23056 2.80471 9.00477C2.57576 9.85937 2.52754 10.7523 2.66312 11.6266C2.81287 12.5845 3.1596 13.5009 3.68141 14.318C2.79247 13.7512 2.02942 13.0078 1.43952 12.134C0.803674 11.1888 0.36688 10.1241 0.155743 9.00477C-0.0703643 7.80138 -0.0498921 6.56462 0.21592 5.36937C0.502091 4.09024 1.04392 2.88216 1.80884 1.81775L5.55397 5.56406Z" fill="#024A69"/>
<path d="M5.55397 12.4463C5.87137 13.0897 6.32277 13.6578 6.87786 14.1124C7.49897 14.619 8.22044 14.9882 8.99468 15.1956C9.84941 15.4259 10.7429 15.4749 11.6177 15.3395C12.5751 15.1902 13.4912 14.8438 14.308 14.3224C13.7415 15.2116 12.998 15.9748 12.1239 16.5643C11.1789 17.2005 10.1142 17.6373 8.99468 17.8481C7.79134 18.0748 6.55446 18.0543 5.35928 17.7879C4.08067 17.5019 2.87303 16.9604 1.80884 16.1961L5.55397 12.4463Z" fill="#E97770"/>
<path d="M12.4354 12.4465C13.082 12.1257 13.6522 11.6698 14.1074 11.1096C14.6146 10.4833 14.9816 9.75538 15.1835 8.9751C15.4068 8.11316 15.447 7.21399 15.3015 6.33557C15.1413 5.37401 14.7837 4.45603 14.2514 3.6394C15.1493 4.20337 15.9216 4.94599 16.5204 5.82112C17.1688 6.76905 17.6154 7.8402 17.8325 8.96802C18.0659 10.1779 18.0491 11.4227 17.7829 12.6258C17.4961 13.913 16.951 15.1285 16.1806 16.1987L12.4354 12.4465Z" fill="#024A69"/>
<path d="M12.4012 5.53049C12.0811 4.8918 11.6285 4.32865 11.0737 3.87857C10.4531 3.38005 9.73414 3.01818 8.96399 2.81663C8.11352 2.59149 7.22557 2.54528 6.35632 2.68093C5.4049 2.83079 4.49442 3.17457 3.6814 3.69096C4.24378 2.80697 4.98052 2.04695 5.84659 1.45734C6.78363 0.821865 7.83967 0.382753 8.95101 0.16648C10.1457 -0.065952 11.375 -0.0547146 12.5652 0.199518C13.8369 0.473879 15.0406 1.0007 16.105 1.74878L12.4012 5.53049Z" fill="#E97770"/>
</g>
<defs>
<clipPath id="clip0">
<path d="M0 0H57.9847V18H0V0Z" fill="white"/>
</clipPath>
</defs>
</svg>
