<svg width="11" height="12" viewBox="0 0 11 12" fill="none" xmlns="http://www.w3.org/2000/svg">
<path fill-rule="evenodd" clip-rule="evenodd" d="M9.62312 7.35679L8.39505 6.14146C8.35445 6.10086 8.30625 6.06863 8.2532 6.04666C8.20015 6.02468 8.14329 6.01338 8.08586 6.01338C8.02844 6.01338 7.97158 6.02468 7.91853 6.04666C7.86548 6.06863 7.81728 6.10086 7.77667 6.14146C7.73613 6.1813 7.70393 6.22879 7.68195 6.2812C7.65996 6.33362 7.64864 6.38989 7.64864 6.44673C7.64864 6.50356 7.65996 6.55983 7.68195 6.61225C7.70393 6.66466 7.73613 6.71219 7.77667 6.75202L9.00475 7.97025C9.14627 8.10973 9.25866 8.27595 9.33536 8.45926C9.41207 8.64257 9.45158 8.83932 9.45158 9.03803C9.45158 9.23674 9.41207 9.43346 9.33536 9.61676C9.25866 9.80007 9.14627 9.96629 9.00475 10.1058C8.7173 10.3895 8.3297 10.5485 7.92584 10.5485C7.52199 10.5485 7.13438 10.3895 6.84694 10.1058L4.532 7.81401C4.39073 7.67439 4.27856 7.50811 4.20201 7.32482C4.12545 7.14153 4.08604 6.94486 4.08604 6.74623C4.08604 6.5476 4.12545 6.35093 4.20201 6.16764C4.27856 5.98435 4.39073 5.81811 4.532 5.67848C4.76117 5.45066 5.0569 5.30165 5.37638 5.25309C5.43278 5.24502 5.48702 5.22589 5.53598 5.19675C5.58494 5.1676 5.62764 5.12902 5.66162 5.08329C5.6956 5.03755 5.72019 4.98556 5.73396 4.93027C5.74773 4.87498 5.75041 4.81751 5.74185 4.76118C5.7236 4.64694 5.66098 4.54455 5.5676 4.47626C5.47423 4.40798 5.35766 4.37933 5.24327 4.39657C4.74046 4.47299 4.27489 4.70706 3.91363 5.06503C3.69123 5.2849 3.51466 5.54669 3.39416 5.83528C3.27365 6.12387 3.2116 6.43349 3.2116 6.74623C3.2116 7.05897 3.27365 7.36859 3.39416 7.65718C3.51466 7.94577 3.69123 8.2076 3.91363 8.42747L6.22856 10.7163C6.68049 11.1631 7.29035 11.4137 7.92584 11.4137C8.56134 11.4137 9.1712 11.1631 9.62312 10.7163C9.84582 10.4969 10.0227 10.2354 10.1434 9.94707C10.2641 9.65869 10.3263 9.3492 10.3263 9.03658C10.3263 8.72396 10.2641 8.41443 10.1434 8.12606C10.0227 7.83768 9.84582 7.57619 9.62312 7.35679ZM1.81369 3.57188C1.6721 3.43244 1.55965 3.26622 1.4829 3.08291C1.40615 2.89959 1.36662 2.70283 1.36662 2.5041C1.36662 2.30537 1.40615 2.10864 1.4829 1.92533C1.55965 1.74202 1.6721 1.5758 1.81369 1.43635C2.10114 1.15267 2.48874 0.993615 2.8926 0.993615C3.29645 0.993615 3.68406 1.15267 3.9715 1.43635L6.28644 3.72526C6.48495 3.92259 6.62461 4.17126 6.68977 4.44348C6.75493 4.7157 6.74302 5.00071 6.65537 5.26655C6.56772 5.53238 6.40779 5.76855 6.1935 5.94863C5.97921 6.12871 5.71902 6.24558 5.44206 6.28615C5.3349 6.30379 5.23825 6.36095 5.17118 6.44637C5.10411 6.53179 5.07149 6.63925 5.07978 6.74754C5.08806 6.85583 5.13664 6.95707 5.21593 7.03129C5.29521 7.10551 5.39944 7.14732 5.50804 7.14845C5.53052 7.14795 5.55294 7.14601 5.57517 7.14266C6.07792 7.06606 6.54343 6.83205 6.90481 6.47424C7.12709 6.2546 7.30356 5.993 7.42401 5.70466C7.54445 5.41631 7.60647 5.10694 7.60647 4.79445C7.60647 4.48196 7.54445 4.17259 7.42401 3.88425C7.30356 3.5959 7.12709 3.3343 6.90481 3.11466L4.58988 0.822898C4.13795 0.376119 3.52809 0.125549 2.8926 0.125549C2.2571 0.125549 1.64724 0.376119 1.19531 0.822898C0.972597 1.04259 0.795755 1.30433 0.675051 1.59294C0.554347 1.88155 0.492188 2.19127 0.492188 2.5041C0.492188 2.81694 0.554347 3.12665 0.675051 3.41526C0.795755 3.70387 0.972597 3.96565 1.19531 4.18534L2.4231 5.40067C2.50579 5.48135 2.61675 5.52652 2.73229 5.52652C2.84782 5.52652 2.95878 5.48135 3.04147 5.40067C3.0821 5.36058 3.11437 5.31284 3.13639 5.26019C3.15841 5.20753 3.16975 5.15103 3.16975 5.09396C3.16975 5.03688 3.15841 4.98038 3.13639 4.92773C3.11437 4.87507 3.0821 4.82729 3.04147 4.78721L1.81369 3.57188Z" fill="#024A69"/>
</svg>
