<svg width="11" height="10" viewBox="0 0 11 10" fill="none" xmlns="http://www.w3.org/2000/svg">
<path d="M1.20052 2.40104C1.86355 2.40104 2.40104 1.86355 2.40104 1.20052C2.40104 0.53749 1.86355 0 1.20052 0C0.53749 0 0 0.53749 0 1.20052C0 1.86355 0.53749 2.40104 1.20052 2.40104Z" fill="#EAEAEC"/>
<path d="M10.0243 9.99965V6.21272C10.0243 5.11745 9.85822 4.24052 9.30646 3.73864C8.88587 3.35496 8.30387 3.09498 7.20271 3.14957C6.23664 3.19826 5.65975 4.04102 5.55333 4.21225L5.52387 3.29173H3.5399V9.99925H5.6248V6.48448L5.62127 6.37963C5.63815 6.09491 5.68371 5.70455 5.87849 5.40766C6.11412 5.04872 6.5728 4.92463 7.05427 4.97568C7.77214 5.0499 7.92687 5.80469 7.92687 6.15735V10L10.0243 9.99965Z" fill="#EAEAEC"/>
<path d="M2.22781 3.29211H0.148796V9.99961H2.22781V3.29211Z" fill="#EAEAEC"/>
</svg>
