<svg width="9" height="10" viewBox="0 0 9 10" fill="none" xmlns="http://www.w3.org/2000/svg">
<g clip-path="url(#clip0)">
<path fill-rule="evenodd" clip-rule="evenodd" d="M4.09091 0C3.01446 0.0270607 1.98957 0.466759 1.22816 1.22817C0.466754 1.98957 0.0270607 3.01446 0 4.09091C0.0381607 4.7519 0.220534 5.39654 0.534318 5.97956C0.543863 5.99774 0.554318 6.01592 0.565681 6.0341C3.03955 10 3.77636 10 4.09091 10C4.58159 10 5.11364 9.65454 6.37341 7.89318C7.03045 6.975 7.59273 6.07274 7.61636 6.0341C7.62773 6.01592 7.63795 5.99774 7.6475 5.97956C7.96124 5.39652 8.14361 4.75189 8.18182 4.09091C8.15476 3.01446 7.71506 1.98957 6.95366 1.22817C6.19225 0.466759 5.16736 0.0270607 4.09091 0ZM7.0375 5.67499C7.0375 5.67499 4.76977 9.31818 4.09091 9.31818C3.41773 9.31818 1.14432 5.67499 1.14432 5.67499C0.878347 5.18624 0.720612 4.64599 0.681818 4.09091C0.681818 3.18676 1.04099 2.31965 1.68032 1.68033C2.31965 1.041 3.18676 0.681818 4.09091 0.681818C4.99506 0.681818 5.86217 1.041 6.5015 1.68033C7.14083 2.31965 7.5 3.18676 7.5 4.09091C7.46123 4.646 7.3035 5.18625 7.0375 5.67499ZM4.09091 2.04545C3.73131 2.04545 3.37978 2.15209 3.08078 2.35188C2.78178 2.55166 2.54874 2.83561 2.41113 3.16784C2.27351 3.50007 2.23751 3.86564 2.30766 4.21833C2.37782 4.57103 2.55098 4.89501 2.80526 5.14929C3.05954 5.40356 3.38351 5.57673 3.7362 5.64689C4.08889 5.71704 4.45447 5.68102 4.7867 5.54341C5.11893 5.40579 5.40289 5.17277 5.60267 4.87377C5.80246 4.57477 5.90909 4.22324 5.90909 3.86364C5.90849 3.38161 5.71674 2.9195 5.37589 2.57865C5.03505 2.23781 4.57294 2.04606 4.09091 2.04545ZM4.09091 5C3.86616 5 3.64645 4.93335 3.45958 4.80849C3.2727 4.68362 3.12705 4.50616 3.04105 4.29851C2.95504 4.09087 2.93253 3.86237 2.97638 3.64194C3.02023 3.42151 3.12845 3.21903 3.28738 3.06011C3.4463 2.90119 3.64878 2.79295 3.86922 2.74911C4.08965 2.70526 4.31813 2.72777 4.52578 2.81378C4.73342 2.89979 4.9109 3.04544 5.03576 3.23231C5.16063 3.41919 5.22727 3.63889 5.22727 3.86364C5.22727 4.16502 5.10755 4.45405 4.89444 4.66716C4.68133 4.88027 4.39229 5 4.09091 5Z" fill="#EAEAEC"/>
</g>
<defs>
<clipPath id="clip0">
<rect width="8.18182" height="10" fill="white"/>
</clipPath>
</defs>
</svg>
