<svg width="20" height="20" viewBox="0 0 20 20" fill="none" xmlns="http://www.w3.org/2000/svg">
<path d="M11.5742 13.4277L10.175 10.0388C10.4817 9.92494 10.7385 9.70686 10.9007 9.42276C11.0629 9.13865 11.12 8.80658 11.0621 8.48461C11.0043 8.16264 10.8351 7.87125 10.5841 7.66139C10.3332 7.45153 10.0165 7.33655 9.68932 7.33655C9.36219 7.33655 9.04547 7.45153 8.79453 7.66139C8.54359 7.87125 8.37439 8.16264 8.31652 8.48461C8.25865 8.80658 8.3158 9.13865 8.47796 9.42276C8.64012 9.70686 8.89698 9.92494 9.20363 10.0388L7.8103 13.4277H11.5742Z" fill="#EAEAEC"/>
<path d="M6.17084 6.18317C5.45599 6.5337 4.82452 7.03328 4.31892 7.64829C3.75683 8.33867 3.34693 9.14001 3.11606 9.99981C2.86182 10.9502 2.80843 11.9432 2.95929 12.9154C3.12501 13.9793 3.51019 14.9972 4.09036 15.9043C3.10296 15.2749 2.25523 14.4496 1.59965 13.4795C0.893654 12.4301 0.408163 11.2483 0.172624 10.0057C-0.0783717 8.66853 -0.0554439 7.29436 0.240019 5.96633C0.558623 4.54549 1.16059 3.20353 2.00989 2.02075L6.17084 6.18317Z" fill="#E97770"/>
<path d="M6.17084 13.829C6.52187 14.5435 7.02137 15.1749 7.63596 15.6809C8.32643 16.2437 9.1284 16.6537 9.98895 16.8838C10.9389 17.138 11.9314 17.1914 12.9031 17.0405C13.967 16.8748 14.9848 16.4896 15.8919 15.9095C15.2626 16.8973 14.4367 17.7451 13.4657 18.4002C12.4157 19.107 11.2327 19.5925 9.98895 19.8272C8.65131 20.0782 7.27666 20.0553 5.94814 19.7598C4.52766 19.4415 3.18613 18.8395 2.00403 17.9899L6.17084 13.829Z" fill="#EAEAEC"/>
<path d="M13.8173 13.8294C14.5363 13.4732 15.1704 12.9665 15.6765 12.3437C16.2391 11.647 16.6466 10.8384 16.872 9.97171C17.1214 9.01514 17.1673 8.01689 17.0068 7.04146C16.8271 5.97254 16.4281 4.9524 15.8347 4.04529C16.8326 4.67151 17.6909 5.49639 18.3562 6.4686C19.0768 7.521 19.573 8.71045 19.814 9.96292C20.0742 11.3072 20.0552 12.6906 19.7583 14.0272C19.4405 15.457 18.8354 16.8074 17.9797 17.9962L13.8173 13.8294Z" fill="#E97770"/>
<path d="M13.7793 6.1447C13.4244 5.43642 12.9224 4.81205 12.3069 4.3133C11.6177 3.75739 10.8189 3.35347 9.96267 3.12801C9.01777 2.87875 8.03134 2.82885 7.06612 2.9815C6.00763 3.14622 4.99458 3.5278 4.09045 4.10232C4.71524 3.11962 5.53382 2.27461 6.49619 1.61894C7.53793 0.913255 8.71154 0.425371 9.94655 0.18458C11.274 -0.0733024 12.6399 -0.0608448 13.9625 0.221208C15.3772 0.52561 16.7164 1.11102 17.9007 1.94273L13.7793 6.1447Z" fill="#EAEAEC"/>
</svg>
