<svg width="20" height="20" viewBox="0 0 20 20" fill="none" xmlns="http://www.w3.org/2000/svg">
<path d="M11.574 13.4277L10.1748 10.0388C10.4814 9.92494 10.7383 9.70686 10.9004 9.42276C11.0626 9.13865 11.1197 8.80658 11.0619 8.48461C11.004 8.16264 10.8348 7.87125 10.5839 7.66139C10.3329 7.45153 10.0162 7.33655 9.68908 7.33655C9.36195 7.33655 9.04523 7.45153 8.79428 7.66139C8.54334 7.87125 8.37415 8.16264 8.31628 8.48461C8.25841 8.80658 8.31555 9.13865 8.47771 9.42276C8.63987 9.70686 8.89673 9.92494 9.20339 10.0388L7.81006 13.4277H11.574Z" fill="#024A69"/>
<path d="M6.17084 6.18317C5.45599 6.5337 4.82452 7.03328 4.31892 7.64829C3.75683 8.33867 3.34693 9.14001 3.11606 9.99981C2.86182 10.9502 2.80843 11.9432 2.95929 12.9154C3.12501 13.9793 3.51019 14.9972 4.09036 15.9043C3.10296 15.2749 2.25523 14.4496 1.59965 13.4795C0.893654 12.4301 0.408163 11.2483 0.172624 10.0057C-0.0783717 8.66853 -0.0554439 7.29436 0.240019 5.96633C0.558623 4.54549 1.16059 3.20353 2.00989 2.02075L6.17084 6.18317Z" fill="#024A69"/>
<path d="M6.17072 13.829C6.52175 14.5435 7.02125 15.1749 7.63584 15.6809C8.32631 16.2437 9.12828 16.6537 9.98883 16.8838C10.9387 17.138 11.9312 17.1914 12.903 17.0405C13.9669 16.8748 14.9847 16.4896 15.8918 15.9095C15.2625 16.8973 14.4366 17.7451 13.4656 18.4002C12.4156 19.107 11.2326 19.5925 9.98883 19.8272C8.65119 20.0782 7.27654 20.0553 5.94802 19.7598C4.52754 19.4415 3.18601 18.8395 2.00391 17.9899L6.17072 13.829Z" fill="#E97770"/>
<path d="M13.8174 13.8294C14.5365 13.4732 15.1705 12.9665 15.6766 12.3437C16.2392 11.647 16.6468 10.8384 16.8722 9.97171C17.1215 9.01514 17.1674 8.01689 17.007 7.04146C16.8273 5.97254 16.4282 4.9524 15.8349 4.04529C16.8327 4.67151 17.691 5.49639 18.3563 6.4686C19.0769 7.521 19.5731 8.71045 19.8141 9.96292C20.0743 11.3072 20.0554 12.6906 19.7585 14.0272C19.4406 15.457 18.8355 16.8074 17.9798 17.9962L13.8174 13.8294Z" fill="#024A69"/>
<path d="M13.7792 6.1447C13.4243 5.43642 12.9223 4.81205 12.3067 4.3133C11.6176 3.75739 10.8188 3.35347 9.96255 3.12801C9.01765 2.87875 8.03122 2.82885 7.066 2.9815C6.00751 3.14622 4.99446 3.52779 4.09033 4.10232C4.71512 3.11962 5.5337 2.27461 6.49606 1.61894C7.53781 0.913255 8.71142 0.425371 9.94643 0.18458C11.2739 -0.0733024 12.6398 -0.0608448 13.9623 0.221208C15.3771 0.52561 16.7163 1.11102 17.9006 1.94273L13.7792 6.1447Z" fill="#E97770"/>
</svg>
