<svg width="13" height="10" viewBox="0 0 13 10" fill="none" xmlns="http://www.w3.org/2000/svg">
<path fill-rule="evenodd" clip-rule="evenodd" d="M12.0588 0H0.882353C0.648338 0 0.423903 0.0929568 0.25843 0.25843C0.0929568 0.423903 0 0.648338 0 0.882353V9.11765C0 9.35166 0.0929568 9.5761 0.25843 9.74157C0.423903 9.90704 0.648338 10 0.882353 10H12.0588C12.2928 10 12.5173 9.90704 12.6827 9.74157C12.8482 9.5761 12.9412 9.35166 12.9412 9.11765V0.882353C12.9412 0.648338 12.8482 0.423903 12.6827 0.25843C12.5173 0.0929568 12.2928 0 12.0588 0ZM12.0588 8.49408L9.72353 6.15881C9.6399 6.08088 9.52927 6.03845 9.41498 6.04047C9.30068 6.04249 9.19164 6.08882 9.11081 6.16965C9.02998 6.25048 8.98368 6.35953 8.98166 6.47382C8.97965 6.58811 9.02207 6.69874 9.1 6.78237L11.435 9.11765H1.50617L3.84146 6.78237C3.88429 6.74184 3.91858 6.69312 3.94226 6.63912C3.96595 6.58511 3.97856 6.5269 3.97937 6.46793C3.98017 6.40897 3.96915 6.35044 3.94695 6.29581C3.92475 6.24118 3.89182 6.19159 3.85012 6.1499C3.80841 6.10822 3.75877 6.07528 3.70413 6.05311C3.64949 6.03093 3.59096 6.01996 3.532 6.0208C3.47303 6.02163 3.41484 6.03428 3.36085 6.05799C3.30686 6.0817 3.25816 6.11596 3.21765 6.15881L0.882353 8.49408V2.83232L6.18293 6.82352C6.25937 6.88066 6.35221 6.91162 6.44765 6.91177C6.54314 6.912 6.6361 6.881 6.71236 6.82352L12.0588 2.82945V8.49408ZM12.0588 0.882353V1.72938L6.44941 5.92055L0.882353 1.72938V0.882353H12.0588Z" fill="#EAEAEC"/>
</svg>
