<svg width="14" height="11" viewBox="0 0 14 11" fill="none" xmlns="http://www.w3.org/2000/svg">
<g clip-path="url(#clip0)">
<path fill-rule="evenodd" clip-rule="evenodd" d="M13.1038 0.12854H1.75214C1.51446 0.12854 1.28651 0.222954 1.11844 0.391022C0.950371 0.559089 0.855957 0.787043 0.855957 1.02473V9.38913C0.855957 9.62682 0.950371 9.85477 1.11844 10.0228C1.28651 10.1909 1.51446 10.2853 1.75214 10.2853H13.1038C13.3415 10.2853 13.5695 10.1909 13.7375 10.0228C13.9056 9.85477 14 9.62682 14 9.38913V1.02473C14 0.787043 13.9056 0.559089 13.7375 0.391022C13.5695 0.222954 13.3415 0.12854 13.1038 0.12854ZM13.1038 8.75579L10.7319 6.3839C10.647 6.30475 10.5346 6.26166 10.4185 6.26371C10.3025 6.26576 10.1917 6.31282 10.1096 6.39492C10.0275 6.47701 9.98048 6.58777 9.97844 6.70386C9.97639 6.81994 10.0195 6.9323 10.0986 7.01724L12.4702 9.38913H2.38574L4.75765 7.01724C4.80115 6.97608 4.83597 6.92659 4.86002 6.87174C4.88408 6.8169 4.89689 6.75776 4.89771 6.69788C4.89853 6.63799 4.88733 6.57854 4.86478 6.52306C4.84224 6.46757 4.8088 6.4172 4.76643 6.37486C4.72407 6.33252 4.67366 6.29907 4.61816 6.27655C4.56267 6.25403 4.50322 6.24288 4.44333 6.24373C4.38344 6.24458 4.32433 6.25742 4.2695 6.28151C4.21466 6.30559 4.1652 6.34038 4.12405 6.3839L1.75214 8.75579V3.00526L7.13583 7.05903C7.21346 7.11707 7.30776 7.14852 7.40469 7.14867C7.50168 7.14891 7.5961 7.11742 7.67355 7.05903L13.1038 3.00235V8.75579ZM13.1038 1.02473V1.88503L7.40648 6.14192L1.75214 1.88503V1.02473H13.1038Z" fill="#024A69"/>
</g>
<defs>
<clipPath id="clip0">
<rect x="0.855957" y="0.12854" width="13.1441" height="10.1568" fill="white"/>
</clipPath>
</defs>
</svg>
