<svg width="48" height="48" viewBox="0 0 48 48" fill="none" xmlns="http://www.w3.org/2000/svg">
<g clip-path="url(#clip0)">
<path d="M44 -0.0999756H4C1.8 -0.0999756 0 1.70002 0 3.90002V37C0 39.2 1.8 41 4 41H16.4V46.1H13.4C12.8 46.1 12.4 46.5 12.4 47.1C12.4 47.7 12.8 48.1 13.4 48.1H34.6C35.2 48.1 35.6 47.7 35.6 47.1C35.6 46.5 35.2 46.1 34.6 46.1H31.6V41H44C46.2 41 48 39.2 48 37V3.90002C48 1.70002 46.2 -0.0999756 44 -0.0999756ZM18.4 46.1V41.1H29.6V46.1H18.4ZM4 1.90002H44C45.1 1.90002 46 2.80002 46 3.90002V31.3H2V3.90002C2 2.80002 2.9 1.90002 4 1.90002ZM44 39H4C2.9 39 2 38.1 2 37V33.3H46V37C46 38.1 45.1 39 44 39Z" fill="#024A69"/>
<path d="M4.5 19.4H10.9C11.3 19.4 11.7 19.1 11.9 18.7L13.5 13.1L17 25.8C17.1 26.2 17.5 26.5 17.9 26.5C18.3 26.5 18.7 26.2 18.9 25.8L21.3 18.4H24.9C25.3 18.4 25.6 18.2 25.8 17.9L29.3 11.7L32.1 23.7C32.2 24.1 32.6 24.5 33 24.5C33.4 24.5 33.9 24.2 34 23.8L35.9 17.9H43.7C44.3 17.9 44.7 17.5 44.7 16.9C44.7 16.3 44.3 15.9 43.7 15.9H35C34.6 15.9 34.2 16.2 34 16.6L33 19.7L30.5 8.80003C30.4 8.40003 30.1 8.10003 29.7 8.00003C29.3 7.90003 28.9 8.10003 28.7 8.50003L24.3 16.4H20.5C20.1 16.4 19.7 16.7 19.5 17.1L17.9 22L14.3 9.00003C14.2 8.60003 13.8 8.30003 13.3 8.30003C12.9 8.30003 12.5 8.60003 12.3 9.00003L10 17.3H4.5C3.9 17.3 3.5 17.7 3.5 18.3C3.5 18.9 3.9 19.4 4.5 19.4Z" fill="#024A69"/>
</g>
<defs>
<clipPath id="clip0">
<rect width="48" height="48" fill="white"/>
</clipPath>
</defs>
</svg>
