<svg width="48" height="48" viewBox="0 0 48 48" fill="none" xmlns="http://www.w3.org/2000/svg">
<path d="M44.875 29.8L18.175 3.1C16.175 1.1 13.475 0 10.675 0C7.775 0 5.075 1.1 3.075 3.1C-1.025 7.3 -1.025 14 3.075 18.2L29.775 44.9C31.775 46.9 34.475 48 37.275 48C40.075 48 42.775 46.9 44.775 44.9C48.975 40.7 48.975 34 44.875 29.8ZM4.475 16.7C1.075 13.3 1.075 7.9 4.475 4.5C6.175 2.9 8.275 2 10.575 2C12.875 2 15.075 2.9 16.675 4.5L29.375 17.2L17.175 29.4L4.475 16.7ZM43.475 43.5C41.875 45.1 39.675 46 37.375 46C35.075 46 32.875 45.1 31.275 43.5L18.575 30.8L30.775 18.6L43.475 31.3C46.775 34.6 46.775 40.1 43.475 43.5Z" fill="#024A69"/>
<path d="M42.075 32.7C41.675 32.3 41.075 32.3 40.675 32.7C40.275 33.1 40.275 33.7 40.675 34.1C42.475 35.9 42.475 38.9 40.675 40.7C40.275 41.1 40.275 41.7 40.675 42.1C40.875 42.3 41.175 42.4 41.375 42.4C41.675 42.4 41.875 42.3 42.075 42.1C44.575 39.5 44.575 35.3 42.075 32.7Z" fill="#024A69"/>
<path d="M31.475 22.1C31.075 21.7 30.475 21.7 30.075 22.1C29.675 22.5 29.675 23.1 30.075 23.5L35.575 29C35.775 29.2 36.075 29.3 36.275 29.3C36.575 29.3 36.775 29.2 36.975 29C37.375 28.6 37.375 28 36.975 27.6L31.475 22.1Z" fill="#024A69"/>
</svg>
