<svg width="48" height="49" viewBox="0 0 48 49" fill="none" xmlns="http://www.w3.org/2000/svg">
<path d="M44 0H4C1.8 0 0 1.8 0 4V37.1C0 39.3 1.8 41.1 4 41.1H16.4V46.2H13.4C12.8 46.2 12.4 46.6 12.4 47.2C12.4 47.8 12.8 48.2 13.4 48.2H34.6C35.2 48.2 35.6 47.8 35.6 47.2C35.6 46.6 35.2 46.2 34.6 46.2H31.6V41.1H44C46.2 41.1 48 39.3 48 37.1V4C48 1.8 46.2 0 44 0ZM18.4 46.2V41.2H29.6V46.2H18.4ZM4 2H44C45.1 2 46 2.9 46 4V31.4H2V4C2 2.9 2.9 2 4 2ZM44 39.1H4C2.9 39.1 2 38.2 2 37.1V33.4H46V37.1C46 38.2 45.1 39.1 44 39.1Z" fill="#024A69"/>
<path fill-rule="evenodd" clip-rule="evenodd" d="M21.4636 24.1373C21.0657 24.1363 20.6844 23.9782 20.4026 23.6974L13.4026 16.6974C13.1376 16.413 12.9934 16.0369 13.0002 15.6483C13.0071 15.2597 13.1645 14.889 13.4394 14.6141C13.7142 14.3393 14.0849 14.1818 14.4735 14.1749C14.8621 14.1681 15.2382 14.3123 15.5226 14.5773L21.4626 20.5172L31.4026 10.5773C31.5399 10.4299 31.7055 10.3118 31.8895 10.2298C32.0735 10.1479 32.2721 10.1038 32.4735 10.1002C32.6749 10.0967 32.875 10.1337 33.0618 10.2091C33.2486 10.2845 33.4182 10.3967 33.5607 10.5392C33.7031 10.6816 33.8154 10.8514 33.8908 11.0382C33.9663 11.225 34.0033 11.4249 33.9998 11.6263C33.9962 11.8277 33.9521 12.0263 33.8701 12.2103C33.7882 12.3943 33.6699 12.5601 33.5226 12.6974L22.5226 23.6974C22.2412 23.9777 21.8607 24.1357 21.4636 24.1373Z" fill="#024A69"/>
</svg>
