<svg width="51" height="40" viewBox="0 0 51 40" fill="none" xmlns="http://www.w3.org/2000/svg">
<path fill-rule="evenodd" clip-rule="evenodd" d="M12.346 0.0188687C17.5225 0.0188687 22.2537 3.38362 23.6452 8.02301C26.3806 17.1276 18.1745 34.1493 15.1847 40H7.66251C10.1434 34.1255 12.2267 28.4332 13.2286 23.2396C12.9503 23.2396 12.6641 23.2396 12.3778 23.2396C10.7893 23.3341 9.19821 23.1045 7.70206 22.5648C6.20591 22.0251 4.83629 21.1867 3.67724 20.1011C2.51819 19.0155 1.59415 17.7055 0.961811 16.2516C0.329475 14.7977 0.00218108 13.2304 1.08639e-05 11.646C-0.00215935 10.0616 0.32084 8.49349 0.94919 7.03784C1.57754 5.58219 2.49799 4.26972 3.65406 3.18096C4.81014 2.0922 6.17745 1.25011 7.67212 0.706354C9.16679 0.162601 10.7573 -0.071345 12.346 0.0188687ZM38.3637 0.0188687C43.5402 0.0188687 48.2714 3.38362 49.6629 8.02301C52.3983 17.1276 44.1922 34.1493 41.2103 40H33.6881C36.1611 34.1255 38.2444 28.4332 39.2542 23.2396C38.968 23.2396 38.6817 23.2396 38.3955 23.2396C36.807 23.3341 35.2159 23.1045 33.7197 22.5648C32.2236 22.0251 30.854 21.1867 29.6949 20.1011C28.5358 19.0155 27.6118 17.7055 26.9795 16.2516C26.3471 14.7977 26.0198 13.2304 26.0177 11.646C26.0155 10.0616 26.3385 8.49349 26.9669 7.03784C27.5952 5.58219 28.5156 4.26972 29.6717 3.18096C30.8278 2.0922 32.1951 1.25011 33.6898 0.706354C35.1844 0.162601 36.7749 -0.071345 38.3637 0.0188687Z" fill="#E97770"/>
</svg>
