<svg width="8" height="14" viewBox="0 0 8 14" fill="none" xmlns="http://www.w3.org/2000/svg">
<path fill-rule="evenodd" clip-rule="evenodd" d="M0.998591 13.8325C0.887782 13.9399 0.73953 14 0.585213 14C0.430895 14 0.28262 13.9399 0.171811 13.8325C0.117438 13.7796 0.0742197 13.7163 0.0447089 13.6464C0.0151981 13.5765 0 13.5014 0 13.4256C0 13.3497 0.0151981 13.2746 0.0447089 13.2047C0.0742197 13.1348 0.117438 13.0715 0.171811 13.0186L6.39268 6.89353L0.173706 0.980453C0.119537 0.927813 0.0764927 0.864861 0.0470887 0.795286C0.0176847 0.725712 0.00251848 0.650949 0.00251848 0.575416C0.00251848 0.499883 0.0176847 0.42512 0.0470887 0.355545C0.0764927 0.285971 0.119537 0.222972 0.173706 0.170333C0.28362 0.0612198 0.432231 0 0.587107 0C0.741984 0 0.890571 0.0612198 1.00049 0.170333L7.95157 6.89353L0.998591 13.8325Z" fill="#E97770"/>
</svg>
