<svg width="17" height="17" viewBox="0 0 13 13" fill="none" xmlns="http://www.w3.org/2000/svg">
<path fill-rule="evenodd" clip-rule="evenodd" d="M12.2057 12.1858L9.28092 9.25224C10.266 8.25981 10.83 6.92553 10.8556 5.52746C10.8811 4.12939 10.3662 2.7754 9.41808 1.74763C8.46995 0.719863 7.16178 0.0975899 5.76619 0.0105376C4.37061 -0.0765146 2.99526 0.378345 1.92676 1.28032C0.858263 2.1823 0.17905 3.46182 0.0306656 4.85223C-0.117718 6.24263 0.276173 7.63669 1.13025 8.74384C1.98434 9.851 3.23272 10.5859 4.61525 10.7953C5.99778 11.0047 7.4078 10.6725 8.55147 9.868L11.5343 12.8616C11.5787 12.9057 11.6313 12.9406 11.6892 12.9643C11.747 12.9881 11.809 13.0002 11.8716 13C11.9341 12.9998 11.996 12.9873 12.0537 12.9631C12.1114 12.939 12.1638 12.9037 12.2079 12.8594C12.252 12.815 12.2869 12.7624 12.3106 12.7045C12.3344 12.6467 12.3465 12.5847 12.3463 12.5222C12.3461 12.4596 12.3335 12.3977 12.3094 12.34C12.2853 12.2823 12.25 12.2299 12.2057 12.1858ZM1.02709 5.45657C1.02989 4.58062 1.29221 3.72514 1.7809 2.99818C2.2696 2.27122 2.96275 1.70541 3.77283 1.37214C4.58291 1.03888 5.47358 0.9531 6.33235 1.12571C7.19113 1.29832 7.9795 1.72157 8.5979 2.34195C9.2163 2.96234 9.637 3.75206 9.80686 4.61138C9.97671 5.47071 9.88812 6.36107 9.55226 7.17007C9.2164 7.97908 8.64835 8.67043 7.91983 9.1568C7.1913 9.64316 6.335 9.90276 5.45904 9.90277C4.87607 9.90194 4.29897 9.78626 3.7607 9.56235C3.22244 9.33845 2.73356 9.01067 2.322 8.59779C1.91043 8.1849 1.58424 7.69498 1.36206 7.156C1.13987 6.61703 1.02605 6.03955 1.02709 5.45657Z" fill="#024A69"/>
</svg>
