<svg width="15" height="15" viewBox="0 0 15 15" fill="none" xmlns="http://www.w3.org/2000/svg">
<path fill-rule="evenodd" clip-rule="evenodd" d="M14.0835 14.0606L10.7088 10.6757C11.8453 9.53054 12.4962 7.99099 12.5257 6.37784C12.5552 4.76468 11.961 3.20238 10.867 2.0165C9.77302 0.830612 8.2636 0.112604 6.6533 0.0121588C5.04301 -0.0882861 3.45606 0.436552 2.22318 1.4773C0.990303 2.51804 0.206596 3.99441 0.0353833 5.59872C-0.135829 7.20304 0.318661 8.81156 1.30414 10.089C2.28962 11.3665 3.73006 12.2145 5.32529 12.4561C6.92052 12.6977 8.54746 12.3145 9.86708 11.3861L13.3088 14.8403C13.36 14.8912 13.4207 14.9315 13.4875 14.9589C13.5543 14.9863 13.6258 15.0002 13.6979 15C13.7701 14.9998 13.8415 14.9853 13.9081 14.9575C13.9747 14.9296 14.0351 14.8889 14.086 14.8377C14.1369 14.7865 14.1771 14.7258 14.2045 14.6591C14.2319 14.5923 14.2459 14.5208 14.2457 14.4487C14.2455 14.3765 14.231 14.305 14.2032 14.2385C14.1753 14.1719 14.1347 14.1114 14.0835 14.0606ZM1.1851 6.29604C1.18834 5.28533 1.49101 4.29824 2.05489 3.45944C2.61877 2.62064 3.41856 1.96778 4.35326 1.58324C5.28797 1.1987 6.31566 1.09973 7.30656 1.2989C8.29746 1.49806 9.20712 1.98643 9.92066 2.70225C10.6342 3.41808 11.1196 4.3293 11.3156 5.32083C11.5116 6.31236 11.4094 7.33969 11.0218 8.27316C10.6343 9.20663 9.97886 10.0043 9.13826 10.5655C8.29766 11.1267 7.30961 11.4263 6.2989 11.4263C5.62623 11.4253 4.96035 11.2918 4.33927 11.0335C3.7182 10.7751 3.15411 10.3969 2.67923 9.92052C2.20434 9.44412 1.82797 8.87882 1.5716 8.25693C1.31524 7.63503 1.1839 6.96871 1.1851 6.29604Z" fill="#EAEAEC"/>
</svg>
