<svg width="11" height="12" viewBox="0 0 11 12" fill="none" xmlns="http://www.w3.org/2000/svg">
<path fill-rule="evenodd" clip-rule="evenodd" d="M8.97034 7.23417C8.66852 7.2344 8.37057 7.3021 8.09826 7.43227C7.82596 7.56244 7.58618 7.75182 7.39646 7.98656L3.98715 6.28215C4.0289 6.1205 4.05039 5.95429 4.0511 5.78734C4.05053 5.59738 4.02345 5.40846 3.97065 5.22599L7.43988 3.348C7.76803 3.72787 8.22498 3.97308 8.72294 4.03651C9.22089 4.09995 9.72473 3.97715 10.1376 3.69169C10.5506 3.40623 10.8434 2.97819 10.9599 2.48993C11.0765 2.00166 11.0085 1.48759 10.769 1.04641C10.5296 0.605236 10.1355 0.268123 9.66257 0.0998244C9.18964 -0.0684747 8.67121 -0.0561305 8.20687 0.134582C7.74252 0.325295 7.36503 0.680906 7.14692 1.13303C6.92881 1.58514 6.88547 2.10189 7.02522 2.58403L3.556 4.46491C3.28403 4.14995 2.92165 3.9264 2.51815 3.82465C2.11465 3.7229 1.6896 3.74787 1.30081 3.89621C0.912013 4.04455 0.578334 4.30908 0.34516 4.65375C0.111985 4.99842 -0.00936001 5.40652 -0.00240223 5.82259C0.00455555 6.23867 0.139482 6.64253 0.38405 6.97921C0.628618 7.31589 0.970958 7.56907 1.3645 7.70433C1.75803 7.83958 2.18368 7.85038 2.58355 7.7352C2.98342 7.62001 3.33813 7.38441 3.59941 7.06053L7.00872 8.76494C6.90595 9.17386 6.93345 9.60468 7.08737 9.99722C7.24129 10.3898 7.51395 10.7244 7.86729 10.9545C8.22062 11.1846 8.637 11.2986 9.05826 11.2806C9.47952 11.2626 9.88462 11.1134 10.217 10.854C10.5494 10.5946 10.7926 10.2379 10.9124 9.83367C11.0323 9.42942 11.0229 8.99786 10.8856 8.5992C10.7483 8.20054 10.4899 7.85466 10.1466 7.60994C9.8032 7.36523 9.39198 7.23387 8.97034 7.23417ZM8.97034 0.868102C9.19926 0.868102 9.42305 0.935972 9.6134 1.06316C9.80374 1.19034 9.95209 1.37112 10.0397 1.58262C10.1273 1.79412 10.1502 2.02683 10.1056 2.25136C10.0609 2.47588 9.95067 2.68213 9.78879 2.84401C9.62692 3.00588 9.42067 3.11612 9.19614 3.16078C8.97162 3.20545 8.73889 3.18255 8.52739 3.09494C8.31589 3.00734 8.13513 2.85894 8.00794 2.66859C7.88076 2.47825 7.81287 2.2545 7.81287 2.02557C7.81287 1.71859 7.93482 1.4242 8.15189 1.20713C8.36895 0.990066 8.66336 0.868102 8.97034 0.868102ZM2.02553 6.94481C1.79661 6.94481 1.57282 6.87694 1.38248 6.74975C1.19213 6.62257 1.04378 6.44179 0.956179 6.23029C0.868573 6.01879 0.84564 5.78608 0.890301 5.56155C0.934962 5.33703 1.0452 5.13078 1.20708 4.9689C1.36895 4.80703 1.5752 4.69679 1.79973 4.65213C2.02426 4.60746 2.25699 4.63036 2.46848 4.71797C2.67998 4.80557 2.86074 4.95397 2.98793 5.14432C3.11511 5.33466 3.183 5.55841 3.183 5.78734C3.183 6.09432 3.06105 6.38871 2.84399 6.60578C2.62692 6.82284 2.33251 6.94481 2.02553 6.94481ZM8.97034 10.4172C8.74141 10.4172 8.51763 10.3493 8.32728 10.2222C8.13694 10.095 7.98859 9.9142 7.90098 9.70269C7.81338 9.4912 7.79045 9.25848 7.83511 9.03396C7.87977 8.80943 7.99001 8.60318 8.15189 8.44131C8.31376 8.27943 8.52001 8.16919 8.74454 8.12453C8.96906 8.07987 9.20179 8.10277 9.41329 8.19037C9.62479 8.27798 9.80555 8.42638 9.93274 8.61672C10.0599 8.80707 10.1278 9.03082 10.1278 9.25974C10.1278 9.56672 10.0059 9.86111 9.78879 10.0782C9.57173 10.2952 9.27732 10.4172 8.97034 10.4172Z" fill="#024A69"/>
</svg>
