<svg width="14" height="15" viewBox="0 0 14 15" fill="none" xmlns="http://www.w3.org/2000/svg">
<path fill-rule="evenodd" clip-rule="evenodd" d="M3.48777 14.9868C3.59494 15.0083 3.70575 15.0035 3.8106 14.9726C3.91545 14.9417 4.0112 14.8856 4.08955 14.8094L6.57619 11.9302C6.70624 11.8019 6.78099 11.6278 6.78447 11.4451C6.78796 11.2624 6.71991 11.0855 6.59485 10.9523C6.53402 10.8866 6.46063 10.8338 6.37903 10.797C6.29743 10.7602 6.20928 10.7401 6.11979 10.738C6.0303 10.7359 5.94129 10.7518 5.85804 10.7847C5.77478 10.8176 5.69898 10.8669 5.63511 10.9296L4.0818 12.6625V2.49214C4.07988 2.31078 4.00612 2.13758 3.87669 2.01053C3.74725 1.88348 3.57272 1.81297 3.39136 1.81442C3.00974 1.81442 2.72409 2.3557 2.72409 2.73322V12.7671L1.17761 10.8431C1.11746 10.777 1.04474 10.7236 0.963694 10.6859C0.882652 10.6483 0.794913 10.6271 0.705607 10.6237C0.616301 10.6203 0.527214 10.6348 0.443551 10.6662C0.359888 10.6976 0.283325 10.7454 0.218334 10.8068C0.149138 10.8723 0.0940705 10.9513 0.0565253 11.0389C0.0189801 11.1265 -0.000254511 11.2209 2.54284e-06 11.3162C-0.000180046 11.4896 0.0647599 11.6568 0.181953 11.7847L2.89739 14.7821C2.97186 14.8615 3.06449 14.9216 3.16733 14.9573C3.27018 14.993 3.38014 15.003 3.48777 14.9868ZM9.67915 0.013246C9.57163 -0.00833514 9.46048 -0.00349665 9.35526 0.0274045C9.25004 0.0583056 9.15391 0.11435 9.07513 0.190643L6.57665 3.08347C6.44628 3.21166 6.37131 3.38583 6.36782 3.56863C6.36434 3.75143 6.4326 3.92828 6.55799 4.06134C6.61917 4.12707 6.69288 4.17994 6.77478 4.21675C6.85668 4.25357 6.94513 4.2736 7.0349 4.27572C7.12466 4.27784 7.21395 4.26199 7.29749 4.22908C7.38104 4.19617 7.45715 4.14688 7.52136 4.08411L9.0824 2.34662V12.5488C9.08703 12.7296 9.16212 12.9015 9.29166 13.0278C9.42119 13.154 9.59493 13.2247 9.77582 13.2247C9.95671 13.2247 10.1304 13.154 10.26 13.0278C10.3895 12.9015 10.4646 12.7296 10.4692 12.5488V2.24195L11.9998 4.17056C12.0603 4.23671 12.1333 4.29017 12.2147 4.32786C12.296 4.36554 12.3841 4.38666 12.4736 4.39004C12.5632 4.39343 12.6526 4.379 12.7365 4.34757C12.8205 4.31613 12.8974 4.26832 12.9627 4.20693C13.0322 4.14154 13.0875 4.06258 13.1252 3.97495C13.1629 3.88732 13.1822 3.7929 13.1819 3.6975C13.1815 3.52281 13.1167 3.35439 13 3.22444L10.2741 0.217905C10.1989 0.138138 10.1055 0.0778291 10.0019 0.0421737C9.89824 0.00651831 9.78748 -0.00339345 9.67915 0.013246Z" fill="#024A69"/>
</svg>
