<svg width="14" height="15" viewBox="0 0 14 15" fill="none" xmlns="http://www.w3.org/2000/svg">
<path fill-rule="evenodd" clip-rule="evenodd" d="M9.69417 14.9868C9.58701 15.0083 9.4762 15.0035 9.37135 14.9726C9.26649 14.9417 9.17074 14.8856 9.0924 14.8094L6.60576 11.9302C6.47571 11.8019 6.40096 11.6278 6.39747 11.4451C6.39399 11.2624 6.46204 11.0855 6.5871 10.9523C6.64792 10.8866 6.72132 10.8338 6.80292 10.797C6.88452 10.7602 6.97267 10.7401 7.06216 10.738C7.15165 10.7359 7.24066 10.7518 7.32391 10.7847C7.40716 10.8176 7.48297 10.8669 7.54684 10.9296L9.10014 12.6625V2.49214C9.10206 2.31078 9.17583 2.13758 9.30526 2.01053C9.4347 1.88348 9.60923 1.81297 9.79059 1.81442C10.1722 1.81442 10.4579 2.3557 10.4579 2.73322V12.7671L12.0043 10.8431C12.0645 10.777 12.1372 10.7236 12.2183 10.6859C12.2993 10.6483 12.387 10.6271 12.4763 10.6237C12.5656 10.6203 12.6547 10.6348 12.7384 10.6662C12.8221 10.6976 12.8986 10.7454 12.9636 10.8068C13.0328 10.8723 13.0879 10.9513 13.1254 11.0389C13.163 11.1265 13.1822 11.2209 13.1819 11.3162C13.1821 11.4896 13.1172 11.6568 13 11.7847L10.2846 14.7821C10.2101 14.8615 10.1175 14.9216 10.0146 14.9573C9.91177 14.993 9.8018 15.003 9.69417 14.9868ZM3.50279 0.013246C3.61031 -0.00833514 3.72147 -0.00349665 3.82669 0.0274045C3.93191 0.0583056 4.02804 0.11435 4.10682 0.190643L6.6053 3.08347C6.73567 3.21166 6.81064 3.38583 6.81412 3.56863C6.81761 3.75143 6.74934 3.92828 6.62395 4.06134C6.56278 4.12707 6.48906 4.17994 6.40716 4.21675C6.32526 4.25357 6.23682 4.2736 6.14705 4.27572C6.05728 4.27784 5.968 4.26199 5.88445 4.22908C5.80091 4.19617 5.72479 4.14688 5.66058 4.08411L4.09954 2.34662V12.5488C4.09491 12.7296 4.01982 12.9015 3.89029 13.0278C3.76075 13.154 3.58702 13.2247 3.40613 13.2247C3.22524 13.2247 3.05151 13.154 2.92198 13.0278C2.79244 12.9015 2.71734 12.7296 2.71271 12.5488V2.24195L1.18215 4.17056C1.12164 4.23671 1.04861 4.29017 0.967262 4.32786C0.885918 4.36554 0.797887 4.38666 0.708302 4.39004C0.618715 4.39343 0.529354 4.379 0.445398 4.34757C0.361442 4.31613 0.284565 4.26832 0.219237 4.20693C0.149769 4.14154 0.0944738 4.06258 0.0567627 3.97495C0.0190506 3.88732 -0.000270844 3.7929 3.8147e-06 3.6975C0.000432968 3.52281 0.0652018 3.35439 0.18194 3.22444L2.90785 0.217905C2.98301 0.138138 3.07642 0.0778291 3.18006 0.0421737C3.2837 0.00651831 3.39446 -0.00339345 3.50279 0.013246Z" fill="#024A69"/>
</svg>
