<svg width="38" height="48" viewBox="0 0 38 48" fill="none" xmlns="http://www.w3.org/2000/svg">
<path d="M19.9197 20.6283L19.9193 20.6287C19.5104 21.0975 19.2816 21.6555 19.4331 22.2791C19.4949 22.5337 19.608 22.7375 19.6902 22.8719C19.7323 22.9407 19.7758 23.0062 19.8092 23.0565L19.8138 23.0634C19.848 23.1149 19.8736 23.1533 19.8979 23.192C19.9064 23.2057 19.9162 23.2217 19.9272 23.2396C20.0361 23.4176 20.2639 23.7898 20.6165 24.0382C21.1094 24.3854 21.6874 24.4238 22.2784 24.2546L22.2787 24.2545C25.2074 23.4148 27.9017 24.4735 29.5656 27.058C30.2876 28.181 31.0109 29.2959 31.7329 30.4088C32.8767 32.1717 34.0172 33.9296 35.1441 35.7073L35.1442 35.7076C36.2434 37.4403 36.5418 39.2208 36.1862 40.808C35.8305 42.3956 34.7999 43.881 33.0721 44.984L33.0715 44.9844C32.9237 45.0789 32.7792 45.1721 32.6375 45.2636C31.2874 46.135 30.186 46.8457 28.8082 46.9651C26.338 47.1781 24.3661 46.4328 23.0338 44.5205C20.8146 41.3248 18.7154 38.0294 16.6801 34.6955L16.6794 34.6943C15.2359 32.3376 15.508 29.5871 17.3998 27.4311C17.6523 27.1434 17.8527 26.8132 17.93 26.4308C18.0108 26.0308 17.9352 25.6829 17.8208 25.4108C17.7264 25.1864 17.5924 24.9883 17.5162 24.8757C17.5103 24.8671 17.5049 24.859 17.4998 24.8515C17.4058 24.7119 17.3775 24.6628 17.3638 24.6293L17.3625 24.6262C17.2547 24.3655 17.0891 24.0883 16.8184 23.8805C16.5261 23.6563 16.2043 23.5835 15.9223 23.5879C15.6715 23.5918 15.4534 23.657 15.3277 23.6975C15.2261 23.7303 15.1812 23.7466 15.1463 23.7593C15.1118 23.7718 15.0869 23.7809 15.0264 23.7988L15.0227 23.7999C13.7231 24.1913 12.3317 24.1518 11.0564 23.6873C9.78111 23.2228 8.69025 22.3583 7.94672 21.2228L7.94591 21.2216C5.93911 18.1667 3.95403 15.0948 1.9907 12.0056L1.98906 12.003C1.54252 11.3051 1.23864 10.5257 1.095 9.70975C0.951353 8.89378 0.970775 8.05743 1.15214 7.249C1.3335 6.44059 1.67323 5.67611 2.15169 4.99969C2.63014 4.32328 3.23785 3.74836 3.93972 3.30811L3.94718 3.30343L3.95456 3.29862C4.21254 3.1304 4.4586 2.96519 4.69645 2.80549C5.86314 2.02215 6.83245 1.37135 8.04284 1.14773C8.32687 1.10416 8.57512 1.07488 8.809 1.04731C8.93481 1.03247 9.05647 1.01813 9.1773 1.00231C11.6378 1.09763 13.3871 2.10049 14.6339 3.94228C16.5917 6.84064 18.4629 9.79928 20.3444 12.7743L20.4873 13.0002C20.4873 13.0003 20.4874 13.0005 20.4875 13.0006C22.0734 15.5131 21.8718 18.3926 19.9197 20.6283ZM16.6591 17.97L17.6618 19.0676L18.3004 17.725C18.6072 17.0801 18.6765 16.4551 18.5638 15.8594C18.4565 15.292 18.1948 14.8114 17.9468 14.425L17.9459 14.4236C16.0575 11.4925 14.1669 8.56154 12.274 5.63052L12.2732 5.62932C11.7459 4.81528 11.0074 4.23139 10.1147 4.01668C9.22126 3.80179 8.29697 3.98645 7.4552 4.47747L7.4552 4.47746L7.451 4.47994C6.81156 4.85714 6.19274 5.26654 5.60009 5.66857L5.59917 5.6692C4.76428 6.23692 4.1506 6.9907 3.95575 7.92884C3.76087 8.86717 4.02332 9.8054 4.56743 10.6643L4.56798 10.6652C4.84355 11.0992 5.15202 11.5735 5.45748 12.0433C5.73022 12.4627 6.00056 12.8784 6.24294 13.2585L6.24294 13.2585L6.24516 13.2619C7.54429 15.2805 8.84341 17.3002 10.1425 19.3211L10.144 19.3234C10.5127 19.8936 10.9323 20.3885 11.4624 20.6974C12.0363 21.0318 12.6437 21.0938 13.2526 20.9652L14.4124 20.7202L13.9756 19.6183C13.5763 18.6108 13.4969 18.0342 13.5508 17.6881C13.5899 17.4365 13.7129 17.2054 14.1723 16.9273C14.6432 16.6423 14.8909 16.6436 15.1172 16.7182C15.4429 16.8257 15.9138 17.1542 16.6591 17.97ZM23.1822 27.9505V28.2289L23.3261 28.4673C23.3958 28.5828 23.4619 28.6936 23.5257 28.8004C23.6607 29.0266 23.7852 29.2352 23.9117 29.4347L23.9145 29.4391C24.1551 29.8143 24.3948 30.183 24.6326 30.5488C25.1564 31.3545 25.671 32.1461 26.1666 32.962L26.1742 32.9746L26.1822 32.9869C26.3178 33.1959 26.3878 33.4407 26.3834 33.6899C26.379 33.939 26.3003 34.1812 26.1574 34.3853L26.1353 34.4168L26.1157 34.45C25.9815 34.6771 25.7828 34.8591 25.5449 34.973C25.3069 35.0869 25.0405 35.1275 24.7795 35.0896L24.7506 35.0855L24.7215 35.083C24.2107 35.0391 23.8737 34.7499 23.4167 34.036C22.8134 33.0859 22.202 32.1399 21.5604 31.1473C21.3223 30.779 21.0802 30.4044 20.8328 30.0207L19.8909 28.5604L19.1015 30.1084C18.8199 30.6607 18.696 31.2799 18.7434 31.898C18.7901 32.5065 19.0011 33.0908 19.3535 33.5886C19.5867 33.951 19.8199 34.3136 20.0532 34.6764C21.7471 37.3105 23.4453 39.9514 25.1832 42.5765C25.4145 42.9455 25.7158 43.2658 26.0702 43.5191C26.4291 43.7756 26.8352 43.9584 27.265 44.057C27.6949 44.1556 28.1401 44.168 28.5748 44.0934C29.0021 44.0202 29.4109 43.8644 29.7784 43.6349C30.5443 43.1928 31.2868 42.7113 32.0029 42.1924C32.708 41.6928 33.1947 40.9417 33.3624 40.0937C33.5306 39.2436 33.3654 38.3614 32.901 37.6298C31.2083 34.9621 29.4895 32.3074 27.7748 29.6589C27.5175 29.2614 27.2603 28.8642 27.0033 28.467C26.7039 27.9863 26.2834 27.5927 25.7837 27.326C25.2807 27.0574 24.7155 26.9269 24.1456 26.9478L23.1822 26.983V27.9471V27.9505Z" stroke="#024A69" stroke-width="2"/>
</svg>
