<svg width="13" height="10" viewBox="0 0 13 10" fill="none" xmlns="http://www.w3.org/2000/svg">
<path d="M12.3031 1.18196C11.8419 1.38567 11.3534 1.52086 10.8531 1.58323C11.3777 1.26415 11.7711 0.768189 11.9623 0.184732C11.4662 0.477569 10.9239 0.684107 10.3587 0.795553C10.012 0.426882 9.56247 0.170849 9.0685 0.0606344C8.57453 -0.0495805 8.05884 -0.00889736 7.58827 0.177412C7.11769 0.363721 6.71391 0.687068 6.42926 1.10555C6.14461 1.52404 5.99221 2.01836 5.9918 2.52448C5.99058 2.71753 6.01287 2.91 6.05818 3.09765C5.0544 3.04822 4.07232 2.78768 3.17603 2.33305C2.27974 1.87842 1.48938 1.23991 0.856538 0.45918C0.628804 0.844224 0.509014 1.28351 0.509761 1.73086C0.509977 2.14679 0.612755 2.55625 0.808993 2.92297C1.00523 3.2897 1.28887 3.60238 1.6348 3.83331C1.23388 3.81725 0.842155 3.70838 0.490441 3.51527V3.5445C0.490395 4.12801 0.692326 4.69355 1.06194 5.14507C1.43156 5.59659 1.94607 5.90626 2.51809 6.02147C2.30157 6.08156 2.07798 6.11238 1.85327 6.11312C1.69433 6.11276 1.53577 6.09751 1.37967 6.06754C1.53979 6.56908 1.85322 7.00775 2.27582 7.32174C2.69841 7.63573 3.20887 7.80923 3.73528 7.81778C2.84213 8.52033 1.73875 8.90225 0.6024 8.90219C0.401095 8.90058 0.200015 8.88835 0 8.86554C1.15332 9.60842 2.49667 10.0024 3.86854 9.99999C8.51385 9.99999 11.0518 6.15226 11.0518 2.82023C11.0518 2.70827 11.0478 2.59978 11.0433 2.49179C11.5364 2.13192 11.9627 1.68864 12.3031 1.18196Z" fill="#EAEAEC"/>
</svg>
